<svg id="Layer_1" data-name="Layer 1" xmlns="http://www.w3.org/2000/svg" width="148.7811mm" height="206.4956mm" viewBox="0 0 421.7417 585.3418">
  <path d="M305.1216,261.4794q.6081.72,1.216,1.4394l-.0549-.0487c-.6634,2.8713-1.101,5.8178-2.0289,8.6008-4.1357,12.4036-8.4116,24.7605-12.6352,37.1352-1.0571,3.2782-2.8364,6.518-3.0083,9.841-.269,5.2032.5487,10.4625.906,15.6981-1.6513-2.51-4.7672-5.0491-4.7175-7.5249.3347-16.6825,1.3407-33.3516,2.1293-50.0251a15.2972,15.2972,0,0,0-4.0165,9.07q-2.8674,36.6126-5.2951,73.2581c-.145,2.2145,1.2716,4.5314,1.963,6.8007l-4.1775,38.9317c-1.7483,2.08-4.9726,4.133-5.01,6.2431-.2863,16.1032.049,32.2174.1909,48.3283l.1666.1911q-7.497,4.7263-14.9888,9.4563c-10.4611.7949-20.91,1.9508-31.3858,2.3117-23.9263.824-47.1943-3.1515-69.907-10.5784l-3.4507-1.6165.0336-.3428q-.617-22.595-1.2333-45.1928l3.0324-2.3613,1.9484-.7921c.77-3.6452,2.0716-7.2716,2.2026-10.94.2881-8.07-1.6172-15.45-11.4783-15.7666-3.9067-.1254-7.8951,2.2963-11.8463,3.5582-2.6741-2.0181-7.1016-3.5985-7.7325-6.1267-3.5837-14.36-6.4522-28.4238-.8326-43.6216,7.6054-20.5681,11.76-42.4092,19.3134-63.0006,9.7089-26.4688,29.2476-41.5647,57.3948-41.3389l4.6362,3.4255,9.3108,16.1783c3.6537,9.0961,11.3615,14.92,20.0586,15.1236,10.3.2412,20.6412-10.496,21.7741-18.6465l2.0558-1.1494,6.7355-4.5528,2.4-1.8613c10.2076,3.0369,16.3239,14.5861,28.494,13.7657.569-.0384.99,2.8442,2.0342,3.58C301.0112,260.1228,303.1634,260.6634,305.1216,261.4794Z" transform="translate(-83.831 -130.6582)" fill="#995c4b"/>
  <path d="M405.2164,642.5978c21.6648,3.9107,43.4578,7.246,64.9279,12.0308,7.9785,1.7781,15.4578,6.5054,22.7041,10.6866,9.5451,5.5077,9.6119,14.5117.3108,20.8134-16.2726,11.0249-35.1514,14.7-53.9539,18.5224-67.6954,13.7611-136.2914,11.7415-204.68,10.37-27.6507-.5548-55.2921-5.722-82.7529-9.9817-15.58-2.4168-30.8467-7.0188-46.1245-11.1212-4.8268-1.2961-9.3838-3.8913-13.7992-6.3651-9.34-5.2328-11.02-13.0975-2.3759-19.3851,8.4978-6.1811,18.8736-10.0215,28.8121-13.8966,6.9042-2.692,14.463-3.7047,21.7293-5.4693q.0112,4.4028.0222,8.8092c-.601,5.9323-1.2021,11.8646-1.8108,17.8716h15.7266c-1.0862-6.4892-2.0558-12.2819-3.0253-18.0746q-.01-6.1231-.02-12.2479,15.2822-.9663,30.5653-1.9294l6.8915,2.3793c-3.0221,6.0358-6.47,11.9114-8.8342,18.1948-.8228,2.1868.8031,7.666,1.7037,7.7571,7.4937.7583,15.5362,2.1547,22.4535.1106,3.7244-1.1,6.4291-8.2925,8.0113-13.2422,1.5016-4.6974.94-10.0548,1.285-15.1219,1.042-4.2059,3.0341-8.4282,2.9613-12.6147-.3126-17.9762-1.0223-35.9533-2.0062-53.9072-.6373-11.6284-2.2252-23.2022-2.9831-34.8269-1.166-17.8855-1.9849-35.7936-2.9511-53.6921l2.4948-.2254c.5537,1.9176,1.4523,3.8073,1.61,5.7569,3.1639,39.0427,5.8268,78.1337,9.7029,117.1043.74,7.4392-2.715,17.947,8.3653,22.0381-9.82.63-5.0925,6.8766-3.5817,10.7477,2.5628,6.5668,6.4389,12.6074,9.326,19.0647,3.2284,7.2209,8.8655,10.3075,16.4414,7.1256,6.53-2.7428,10.1483-7.7917,7.107-15.4713-1.9417-4.9028-3.73-9.8663-5.5871-14.8025,8.5235-1.1932,17.0488-3.404,25.57-3.3882,25.1611.0466,50.3206.974,75.4807,1.5567,2.0992,5.99-2.9991,15.1037,7.5576,17.4248-5.7374,7.44-11.6284,14.77-17.1236,22.3854-1.766,2.4474-4.2442,6.8489-3.2958,8.2367,1.6149,2.363,5.6177,4.0616,8.734,4.2671,15.6293,1.03,27.9025-6.1074,38.0652-17.416,9.0681,11.4709,12.19,12.3059,26.9312,6.4284-1.82-5.3612-3.793-10.7923-5.5011-16.3054-1.7355-5.6018-3.21-11.2845-4.7992-16.9319l-.2058-3.1359Z" transform="translate(-83.831 -130.6582)" fill="#e5dad6"/>
  <path d="M460.6758,434.9511q.05,2.2125.0963,4.4209-1.3782,3.44-2.7476,6.8887c-3.5726,8.565-7.31,17.0239-14.36,23.4739-.3058.28-.0856,1.1349-.11,1.722q-4.2318,1.9256-8.4633,3.8518-10.0256,2.16-20.0518,4.3188l-20.611,1.7247q-.94-.1344-1.8777-.271c5.2487-65.7355,3.9327-131.435-1.0067-197.1161,9.09-.0559,15.2533-5.93,17.5957-13.1355,4.1417-12.74,13.0278-21.5533,21.1781-31.1788,4.5838-3.0363,9.6867-5.5189,13.64-9.2274,7.5462-7.0786,12.6627-6.68,19.0078,1.304,2.018,2.5392,6.4223,3.1813,9.7346,4.6915l-.0272-.0254c1.2425,6.2892,2.0429,12.7069,3.8248,18.8393,3.1713,10.9135,7.6688,21.4918,10.1194,32.5413,1.092,4.9235-1.4364,10.65-2.4173,16.592,9.4571.289,10.108,6.3368,10.4255,14.1355.2956,7.2631,4.0769,14.3465,4.6687,21.6432,1.1544,14.2341,3.5022,29.0059.9129,42.7156a84.2423,84.2423,0,0,0,.0236,34.291c-2.9757,1.0978-5.9535,2.7381-9.1135,3.2468-6.1326.9872-12.3676,1.3386-18.56,1.9533q-.8343.1678-1.6549.3968a12.4353,12.4353,0,0,0-1.5283-.0842,7.6228,7.6228,0,0,1-.5687-1.4669c-1.1952-28.6988-2.308-57.4016-3.721-86.09-.1321-2.6818-2.1616-5.27-3.3107-7.9054-1.0119-1.2535-2.023-2.5035-3.4611-4.2812v12.9705q-.0288,33.3718-.0575,66.7436-10.0005-2.6394-20.0011-5.2786-1.8185-1.8-3.6366-3.6l-.8295-.3443.7678.4067q1.81,1.8074,3.6207,3.615l21.6591,8.7852,1.2609,3.8685-.0474,3.7017-.6978,2.0286q.5421,4.3263,1.0841,8.6525-.006,1.635-.0106,3.271Q461.0512,431.3471,460.6758,434.9511Zm-31.5291-44.7337.8821.7011-.76-.8246-1.5968-2.67-1.0716.9749Q427.8743,389.308,429.1467,390.2174Zm7.3818-138.5435-3.8717-.0038q-1.3086,4.4078-2.6171,8.8157l9.024.0424Z" transform="translate(-83.831 -130.6582)" fill="#eb8a66"/>
  <path d="M291.617,308.6051c4.2252-12.3737,8.5011-24.7306,12.6368-37.1342.9279-2.783,1.3655-5.7295,2.0285-8.601l.41.1391c5.0468-11.4936,9.6077-23.24,15.3913-34.35,2.1642-4.1571,7.1766-6.8309,10.89-10.1814,7.6412,7.3941,16.6271,10.3921,27.1517,8.3136-2.58,11.6331,1.7276,20.93,9.6428,29.1294,1.1513,1.1926,1.1132,3.5075,2.2322,4.7616,6.7407,7.5548,5.5349,20.4221,16.712,24.9636.8663,7.4128,2.3128,14.8109,2.5,22.2407.8583,34.1493,1.9318,68.31,1.8021,102.4616-.09,23.5888-2.0166,47.1706-3.1225,70.7556l-3.6446.1633-6.2063-.3085q-15.2078-2.6071-30.4162-5.2162c.6289-1.254,1.2582-2.5063,2.1567-4.294-3.2864,0-6.447.9216-8.57-.172-6.4859-3.3417-17.8842-7.3822-17.94-11.2865-.33-22.9046-4.8606-46.32,3.4768-68.84l11.8169.7112c5.7343.4037,12.6967,3.5477,15.7828-3.9155,2.1891-5.2941,4.5207-12.1956,2.8071-16.9416-1.5354-4.2526-8.5116-6.54-13.3457-9.8728-3.3091,3.7153-6.8407,7.3978-10.039,11.35-3.2759,4.0483-6.2254,8.3607-9.3178,12.5575-3.2751-4.812-4.1525-12.3518-12.6993-11.1665a2.83,2.83,0,0,1-.5611-1.334l.2739-12.7964,5.4673-.3624,1.772-1.6916c4.423-3.4885,8.9637-6.8392,13.2418-10.4972,6.7489-5.77,7.5647-18.1758.45-23.35-4.1467-3.0157-10.4952-3.0029-15.1206-4.1681-2.5424,4.723-4.4128,8.006-6.0977,11.3816-1.6979,3.402-3.2114,6.8959-4.8057,10.35l1.4986,1.6071-1.8794,5.704c-6.08-1.97-15.9331-14.684-16.1612-21.1723C291.6091,321.2356,291.6765,314.9181,291.617,308.6051Z" transform="translate(-83.831 -130.6582)" fill="#eb8a66"/>
  <path d="M362.4907,655.1987c-10.5567-2.3211-5.4584-11.4343-7.5576-17.4247q.1917-8.14.3833-16.28V560.3455l.3085-.0435-.9265,13.2288q-1.6029-19.8587-3.206-39.7173c4.3557-11.8352-2.19-22.3781-3.9552-33.4889a18.7407,18.7407,0,0,1-.48-5.756c.0883-.5427,2.5656-.9362,3.9614-.9811,4.018-.1293,8.0429-.0456,12.065-.0456q.0446-1.6167.0892-3.2335c-3.4492-.5941-6.88-1.36-10.3535-1.7259-2.6259-.2766-6.6969,1.008-7.6569-.2645-1.7235-2.2844-1.5924-5.9684-2.481-10.2457,10.5123,1.951,19.1971,2.7413,27.3521,5.2525a75.7618,75.7618,0,0,0,45.9992-.3181c8.6819-2.7181,15.8085-.3609,16.8782,6.7754a3.2775,3.2775,0,0,1-.3812,1.7311q-.69,8.168-1.38,16.3372l.0345-.0313c-.2493.1-.7123.2009-.7121.3012a5.6265,5.6265,0,0,0,.2377,1.2007c-1.3092,14.1866-1.9366,28.4784-4.1051,42.5323-2.5487,16.5176-6.27,32.8645-9.8021,49.2164-2.19,10.1366-4.8172,20.1884-7.6024,30.1794-.6711,2.4073-2.7473,4.4228-4.177,6.6175-3.4032-1.7839-6.8067-3.5667-10.45-5.4754L390.6124,643.61l6.38,4.2256c-9.0035,4.8441-15.6549,12.3309-25.9032,4.7721C369.6452,651.543,365.4256,654.242,362.4907,655.1987Z" transform="translate(-83.831 -130.6582)" fill="#2a3446"/>
  <path d="M360.14,226.7886c-10.5393,2.081-19.5252-.917-27.1664-8.3111-1.77-7.244-.5372-13.8541,4.166-19.7311,13.9045-4.7555,16.8841-8.3836,16.7-20.3348q1.15-5.2788,2.299-10.5578l3.6886-7.4876c1.5463-21.0115,8.9179-28.0375,27.2643-29.6679,3.9725-.353,8.3042,1.6994,12.2607,3.1978,5.601,2.1212,10.8143,5.4872,16.5421,7.0007,8.4547,2.234,15.7181,5.32,18.87,14.2506l.3649,1.9071.1277,8.8971c-.3544,2.1992-.7089,4.3983-.9558,5.9307l16.4763,6.9619c6.1492,8.5038,5.67,16.9307-.2905,25.29q-.6,1.6107-1.2072,3.2282.1515,3.7415.303,7.4809c-2.1694,9.7529-8.85,15.1065-17.7993,18.2473q-1.3383-.0257-2.6762-.0519c-1.9838-7.9925-8.2112-7.5943-14.3947-7.2829q-2.0892-3.4386-4.1785-6.877c4.3283-12.4117-9.3672-25.5916,4.6718-38.589-15.0345-1.2357-16.3332-9.4874-13.8963-18.0581l-38.5708,3.5033c-.057.3093-.5647,3.0637-1.1433,6.2032l9.1569,2.0591c-13.0028,2.2751-13.0028,2.2751-11.4094,16.1383-3.8093,9.1637-1.1013,16.8218,8.8885,25.1364l1.5611.4a.7319.7319,0,0,1,.8522.4232Z" transform="translate(-83.831 -130.6582)" fill="#2f2220"/>
  <path d="M210.35,225.5165c-8.7219-13.1485-7.57-30.2809,2.8673-39.4824a14.6059,14.6059,0,0,1,6.8715-3.6585c9.8944-1.4971,19.862-3.4517,29.806-3.47,17.1233-.0323,29.4738,20.5251,22.7257,36.7585-1.8978,4.5654-4.2055,8.96-6.3225,13.4357q-3.52-3.18-7.0452-6.3723a2.3429,2.3429,0,0,0-.6752-.6631l-7.9338-2.74c-3.669-1.41-7.2321-3.4147-11.0314-4.0895-5.7733-1.0254-11.71-1.1279-19.77-1.807-.2925.4163-2.0752,2.9546-3.8579,5.4928Q213.1667,222.2183,210.35,225.5165Z" transform="translate(-83.831 -130.6582)" fill="#e5dad6"/>
  <path d="M362.4907,655.1987c2.9349-.9567,7.1545-3.6557,8.5987-2.5906,10.2483,7.5588,16.9.072,25.9032-4.7721l-6.38-4.2256,3.9606-11.2192c3.6437,1.9087,7.0472,3.6915,10.45,5.4754q.0962,2.3668.1928,4.7314l.0809.1314q.1037,1.5693.2042,3.1336c1.589,5.6474,3.0638,11.33,4.7993,16.9319,1.7081,5.5131,3.6806,10.9442,5.5011,16.3054-14.7407,5.8775-17.8631,5.0425-26.9312-6.4284-10.1627,11.3086-22.4359,18.4462-38.0652,17.416-3.1163-.2055-7.1191-1.9041-8.734-4.2671-.9484-1.3878,1.53-5.7893,3.2958-8.2367C350.8623,669.9688,356.7533,662.6392,362.4907,655.1987Z" transform="translate(-83.831 -130.6582)" fill="#3f3d3c"/>
  <path d="M140.036,657.6108q-.0111-4.4055-.0221-8.8092.201-1.83.399-3.6631c.5053-2.269,1.4575-4.5389,1.4576-6.8089q.0051-87.9081-.1711-175.8161-.9251-5.1947-1.8507-10.39,1.1817-3.8941,2.3644-7.7875.6382-.03,1.2757-.0759c.6024,5.8043-2.156,13.3756,7.5621,14.3871l-.0356.3437q-.0559,93.0846-.1084,186.17.01,6.123.02,12.2462Z" transform="translate(-83.831 -130.6582)" fill="#dbb999"/>
  <path d="M472.5564,422.3512c6.1926-.6147,12.4276-.9661,18.56-1.9533,3.16-.5087,6.1378-2.149,9.1135-3.2468a84.2423,84.2423,0,0,1-.0236-34.291c2.5893-13.71.2415-28.4815-.9129-42.7156-.5918-7.2967-4.3731-14.38-4.6687-21.6432-.3175-7.7987-.9684-13.8465-10.4255-14.1355.9809-5.9418,3.5093-11.6685,2.4173-16.592-2.4506-11.0495-6.9481-21.6278-10.1194-32.5413-1.7819-6.1324-2.5823-12.55-3.8248-18.8393,4.5862,9.5425,10.6475,18.6718,13.4591,28.7113,6.3536,22.6873,12.1255,45.647,16.14,68.8411,2.6275,15.18,1.854,30.9611,2.4371,46.4792.4608,12.2616,1.2828,24.5668.6079,36.7787-.1993,3.606-4.9443,6.9607-7.6069,10.432-1.3073-1.12-2.5077-3.0381-3.9382-3.2285C486.7334,423.47,479.6342,422.9916,472.5564,422.3512Z" transform="translate(-83.831 -130.6582)" fill="#daa17f"/>
  <path d="M206.4554,236.4923l-4.6362-3.4255c-28.1472-.2258-47.6859,14.87-57.3948,41.3389-7.5529,20.5914-11.708,42.4325-19.3134,63.0006-5.62,15.1978-2.7511,29.2619.8326,43.6216.6309,2.5282,5.0584,4.1086,7.73,6.1239q-2.1753,3.0111-4.3461,6.0278a32.4438,32.4438,0,0,1-10.86-28.3328c4.3924-41.4045,14.7154-81.4523,36.7359-117.1306,10.8444-17.5706,30.6939-21.5649,50.1813-23.6342.6179-.0656,1.3554.9962,2.0367,1.53Q206.9384,231.05,206.4554,236.4923Z" transform="translate(-83.831 -130.6582)" fill="#8b6456"/>
  <path d="M432.9108,489.7821c-1.07-7.1363-8.1963-9.4935-16.8782-6.7754a75.7618,75.7618,0,0,1-45.9992.3181c-8.155-2.5112-16.84-3.3015-27.3521-5.2525.8886,4.2773.7575,7.9613,2.481,10.2457.96,1.2725,5.031-.0121,7.6569.2645,3.4733.3657,6.9043,1.1318,10.3535,1.7259q-.0446,1.6167-.0892,3.2335c-4.0221,0-8.047-.0837-12.065.0456-1.3958.0449-3.8731.4384-3.9614.9811a18.7407,18.7407,0,0,0,.48,5.756c1.7655,11.1108,8.3109,21.6537,3.9555,33.4892-1.0441-3.7482-2.3527-7.4456-3.0869-11.2539-3.1514-16.3464-6.1337-32.7254-9.1775-49.0937q5.1986,1.1379,10.3969,2.2778,15.2079,2.6071,30.4165,5.2137,3.1037.1539,6.2055.3092,1.8224-.0816,3.6435-.1656,1.3278-.0112,2.6579-.018.94.1342,1.8791.2659,10.3056-.8637,20.611-1.722,10.0261-2.1591,20.0518-4.3188Q434,482.5446,432.9108,489.7821Z" transform="translate(-83.831 -130.6582)" fill="#2f2220"/>
  <path d="M129.3278,393.18q2.1719-3.0153,4.3461-6.0278c3.9534-1.2591,7.9418-3.6808,11.8485-3.5554,9.8611.3165,11.7664,7.6965,11.4783,15.7666-.131,3.6681-1.4322,7.2945-2.2029,10.9382q-.9744.3953-1.9481.7936-1.5162,1.1806-3.0288,2.3637c-1.6684-.8413-3.34-1.685-6.3321-3.1946v33.9966q-.6373.0456-1.2765.0763c-.1156-3.6012-.663-7.2517-.2647-10.7957,1.2287-10.93-4.3482-19.06-10.49-27.0412Z" transform="translate(-83.831 -130.6582)" fill="#eeb595"/>
  <path d="M131.4574,406.5c6.142,7.9814,11.7189,16.1107,10.49,27.0412-.3983,3.544.1491,7.1945.2647,10.7957q-1.1813,3.8929-2.3636,7.7871c-3.214-2.1283-6.5638-4.0807-9.6145-6.4228-6.0335-4.6323-8.3823-10.2245-5.3361-17.9394C127.6139,420.8835,129.3108,413.6029,131.4574,406.5Z" transform="translate(-83.831 -130.6582)" fill="#995c4b"/>
  <path d="M259.2519,222.7341q3.5243,3.1839,7.0457,6.3653,1.0379,3.0636,2.0812,6.13.2058,3.1756.4115,6.3549-1.2.9306-2.4,1.8612c-1.8867-.9976-3.7737-1.9951-6.7358-3.5611v8.114q-1.0279.5747-2.0564,1.15-10.8835-2.6462-21.7662-5.2933l20.4014-4.4985-16.7368-7.0546c2.8263-9.28,9.1331-5.6935,13.9172-6.5586C255.4739,225.3708,257.3127,223.7745,259.2519,222.7341Z" transform="translate(-83.831 -130.6582)" fill="#e6c4a2"/>
  <path d="M206.4554,236.4923q.4832-5.4409.9667-10.88,1.4654-.0448,2.9287-.0947,2.8154-3.3,5.6326-6.6026c-.8033,11.4088,8.7891,9.6261,16.3642,11.5078l-5.6226,4.7737,7.1894,8.4684c-3.4956.3306-6.9983.6-10.485,1.0068-4.7159.55-8.836,1.7637-7.6632,7.9988Z" transform="translate(-83.831 -130.6582)" fill="#e6c4a2"/>
  <path d="M141.7,462.5135q.1179,87.9081.171,175.8161c0,2.27-.9523,4.54-1.4576,6.8089q-.1766-88.8456-.29-177.6895C140.1218,465.8042,141.1508,464.1587,141.7,462.5135Z" transform="translate(-83.831 -130.6582)" fill="#e5dad6"/>
  <path d="M268.79,241.5842q-.2058-3.1783-.4115-6.3549c1.6407-.2439,3.609-1.2041,4.8717-.6251,13.08,5.9977,25.1484,13.3016,31.8718,26.8765-1.9589-.8173-4.1111-1.3579-5.8038-2.5508-1.044-.7358-1.4652-3.6184-2.0342-3.58C285.1142,256.17,278.9979,244.6211,268.79,241.5842Z" transform="translate(-83.831 -130.6582)" fill="#8b6456"/>
  <path d="M431.784,233.0909c8.949-3.1408,15.63-8.4944,17.7993-18.2473,6.3278,4.3122,12.9287,8.287,18.8438,13.1042,2.2386,1.8231,2.8947,5.59,4.2724,8.4709-3.3121-1.51-7.7164-2.1524-9.7344-4.6916-6.3451-7.9835-11.4616-8.3826-19.0078-1.304-3.9535,3.7085-9.0564,6.1911-13.6376,9.2305Q431.0545,236.3753,431.784,233.0909Z" transform="translate(-83.831 -130.6582)" fill="#daa17f"/>
  <path d="M472.5564,422.3512c7.0778.64,14.177,1.1189,21.2153,2.0558,1.43.19,2.6309,2.1084,3.9382,3.2285-11.0126,12.8787-16.2755,12.9766-27.0846.5036q.1388-2.6946.2769-5.3911Q471.722,422.5191,472.5564,422.3512Z" transform="translate(-83.831 -130.6582)" fill="#a66156"/>
  <path d="M450.778,178.8442l-16.4763-6.9619.9558-5.9307,7.4247-4.1285c3.1725,1.607,8.459,2.7122,10.604,5.9193C454.7377,169.9125,451.7694,175.04,450.778,178.8442Z" transform="translate(-83.831 -130.6582)" fill="#e5dad6"/>
  <path d="M359.8277,160.3662q-1.8442,3.7439-3.6882,7.4884c-3.2352,2.9815-6.9472,5.8584-2.2994,10.557.184,11.9512-2.7956,15.5793-16.7,20.3348.0063-.5928-.2271-1.5347.0535-1.7273,9.6393-6.6164,14.075-15.2877,13.43-27.3808C350.468,166.72,356.5916,163.4659,359.8277,160.3662Z" transform="translate(-83.831 -130.6582)" fill="#d1b7a7"/>
  <path d="M461.0481,413.7893q.0237-1.8509.05-3.7008.323-12.6138.6409-25.2307,1.7247.0383,3.45.0791c.0577,8.944-.1758,17.9045.3281,26.8234.1806,3.1972,2.14,6.294,3.2879,9.4366a7.7464,7.7464,0,0,0,.5664,1.4663q-.2406.8785-.4765,1.7582-3.7295.0252-7.4595.05-.5429-4.3273-1.0873-8.6536Q460.6953,414.8029,461.0481,413.7893Z" transform="translate(-83.831 -130.6582)" fill="#e5dad6"/>
  <path d="M443.5538,471.4566c.0248-.5871-.1954-1.4422.11-1.722,7.0508-6.45,10.7877-14.9089,14.36-23.4747q.1628,9.0445.3249,18.0908Z" transform="translate(-83.831 -130.6582)" fill="#daa17f"/>
  <path d="M458.35,464.3507q-.1623-9.0459-.3248-18.0908,1.3713-3.4452,2.7474-6.8879C463.8382,443.8117,462.2724,459.9249,458.35,464.3507Z" transform="translate(-83.831 -130.6582)" fill="#e5dad6"/>
  <path d="M435.13,157.0545q-.1825-.9535-.3649-1.9071c.3835-.4522.775-.8979,1.1489-1.3579q2.1849-2.6874,4.36-5.3824c.7245,1.3615,2.4091,3.3791,2.0056,3.97C440.6293,154.7925,440.6289,160.4423,435.13,157.0545Z" transform="translate(-83.831 -130.6582)" fill="#e5dad6"/>
  <path d="M431.15,507.85q.69-8.1688,1.38-16.3372Q431.84,499.6824,431.15,507.85Z" transform="translate(-83.831 -130.6582)" fill="#2f2220"/>
  <path d="M460.6758,434.9511q.3747-3.6043.748-7.21Q461.0484,431.3453,460.6758,434.9511Z" transform="translate(-83.831 -130.6582)" fill="#e5dad6"/>
  <path d="M449.28,207.3627q.6051-1.6158,1.2072-3.2281.6244,1.4743,1.2552,2.9417Z" transform="translate(-83.831 -130.6582)" fill="#daa17f"/>
  <path d="M468.8944,424.4214q.2371-.8793.4765-1.7582a12.5674,12.5674,0,0,1,1.5306.0848q-.1372,2.6961-.2762,5.3911Q469.76,426.2793,468.8944,424.4214Z" transform="translate(-83.831 -130.6582)" fill="#daa17f"/>
  <polygon points="222.861 132.351 222.451 132.212 222.507 132.261 222.861 132.351" fill="#8b6456"/>
  <path d="M430.71,509.321a5.6265,5.6265,0,0,1-.2377-1.2007c0-.1.4628-.2017.7121-.3012A5.0809,5.0809,0,0,1,430.71,509.321Z" transform="translate(-83.831 -130.6582)" fill="#2f2220"/>
  <path d="M339.2282,473.4673c3.0439,16.3672,6.0262,32.7462,9.1776,49.0926.7342,3.8083,2.0428,7.5057,3.0869,11.2539q1.6026,19.8582,3.2055,39.7155.3089,23.9808.6182,47.9647-.1917,8.14-.3833,16.28c-25.16-.5828-50.32-1.51-75.4807-1.5568-8.5212-.0158-17.0465,2.195-25.57,3.3882q-1.02-4.4864-2.04-8.9729c1.7464-2.7481,5.4744-5.9837,4.9367-8.17-6.2827-25.5465-1.9778-50.4136,3.4638-75.373,5.7963-26.5863,10.6238-53.3182,6.444-80.732l4.0651-6.9371-.171-.1948q2.4086-27.2867,4.8212-54.57,2.0888-19.4659,4.1762-38.9336,5.18-14.8365,10.3615-29.6694,8.2684,15.2305,16.5355,30.4614c1.057,3.62.9553,8.8194,3.37,10.5929,12.1419,8.92,12.6009,9.4473,7.801,24.3127-.6223,1.9274-.4327,4.1512-.4383,6.2381-.0417,15.578-.3471,31.1656.1284,46.7288.1552,5.0787,2.3826,10.094,3.6622,15.1382l-.0782-.0866,6.9551,1.92Z" transform="translate(-83.831 -130.6582)" fill="#fcf3f0"/>
  <path d="M266.6867,466.3576c4.18,27.4138-.6477,54.1457-6.444,80.732-5.4416,24.9594-9.7465,49.8265-3.4638,75.373.5377,2.1862-3.19,5.4218-4.9368,8.17-4.4324,1.351-8.792,3.1728-13.3248,3.8735-2.6366.4076-5.5511-.9831-8.3405-1.5647-11.08-4.0911-7.6254-14.5989-8.3653-22.0381-3.8761-38.9706-6.539-78.0616-9.7029-117.1043-.158-1.95-1.0566-3.8393-1.61-5.7569l-2.4948.2254c.9662,17.8985,1.7851,35.8066,2.9511,53.6921.7579,11.6247,2.3458,23.1985,2.9831,34.8269.9839,17.9539,1.6936,35.931,2.0062,53.9072.0728,4.1865-1.9193,8.4088-2.962,12.6126q-12.31,1.15-24.6186,2.3037-3.4458-1.19-6.89-2.3794c-1.7761-6.96-4.0609-13.8354-5.2437-20.8951-5.4358-32.4438-11.0829-64.8668-15.6174-97.4417-2.9652-21.3008-4.1577-42.8484-6.1441-64.2854,22.7127,7.4269,45.9807,11.4024,69.907,10.5784,10.476-.3609,20.9247-1.5168,31.3846-2.31Q261.2219,467.6182,266.6867,466.3576Z" transform="translate(-83.831 -130.6582)" fill="#e6c4a2"/>
  <path d="M154.4677,460.6082c1.9864,21.437,3.1789,42.9846,6.1441,64.2854,4.5345,32.5749,10.1816,64.9979,15.6174,97.4417,1.1828,7.06,3.4676,13.9347,5.2437,20.8951q-15.2846.964-30.5664,1.9295.0539-93.0829.1088-186.1686Q152.7432,459.8,154.4677,460.6082Z" transform="translate(-83.831 -130.6582)" fill="#fcf3f0"/>
  <path d="M215.7662,252.6706c-1.1728-6.2351,2.9473-7.4487,7.6632-7.9988,3.4867-.4068,6.9894-.6762,10.4862-1.006q.9594.0954,1.9165.1891,10.8828,2.6469,21.7662,5.2933c-1.1323,8.15-11.4732,18.8872-21.7735,18.646C227.1277,267.5906,219.42,261.7667,215.7662,252.6706Z" transform="translate(-83.831 -130.6582)" fill="#fcf3f0"/>
  <path d="M306.4766,366.5141q-8.2685-15.23-16.5363-30.4626-.2113-.9549-.424-1.9063c-.3573-5.2356-1.175-10.4949-.906-15.6981.1719-3.323,1.9512-6.5628,3.0082-9.841.058,6.312-.0094,12.6295.2124,18.9368.2281,6.4883,10.0811,19.2018,16.1623,21.1709.3724,4.3959-1.3675,9.8408,5.4726,11.0282q-.137,6.3982-.272,12.7935Q309.8371,369.522,306.4766,366.5141Z" transform="translate(-83.831 -130.6582)" fill="#daa17f"/>
  <path d="M289.5163,334.1452q.2124.9522.424,1.9063-5.1823,14.8362-10.3621,29.671c-.69-2.2674-2.1067-4.5843-1.9617-6.7988q2.4008-36.6457,5.2951-73.2581a15.2972,15.2972,0,0,1,4.0165-9.07c-.7886,16.6735-1.7946,33.3426-2.1293,50.0251C284.7491,329.0961,287.865,331.6354,289.5163,334.1452Z" transform="translate(-83.831 -130.6582)" fill="#8b6456"/>
  <path d="M143.4888,444.2605V410.2639c2.9917,1.51,4.6637,2.3533,6.3321,3.1946q.6111,22.5936,1.23,45.19C141.3328,457.6361,144.0912,450.0648,143.4888,444.2605Z" transform="translate(-83.831 -130.6582)" fill="#f1bc86"/>
  <path d="M275.402,404.6561q-2.4117,27.2838-4.8212,54.57c-.14-16.1091-.4753-32.2233-.189-48.3265C270.4294,408.7891,273.6537,406.7357,275.402,404.6561Z" transform="translate(-83.831 -130.6582)" fill="#8b6456"/>
  <path d="M266.6867,466.3576q-5.4643,1.26-10.9274,2.5186,7.4949-4.731,14.99-9.4576Q268.7206,462.89,266.6867,466.3576Z" transform="translate(-83.831 -130.6582)" fill="#8b6456"/>
  <path d="M259.6547,247.9983v-8.114c2.9621,1.566,4.8491,2.5635,6.7358,3.5611Z" transform="translate(-83.831 -130.6582)" fill="#eeb595"/>
  <path d="M152.85,411.0948q.9739-.3975,1.9481-.7936Q153.824,410.7,152.85,411.0948Z" transform="translate(-83.831 -130.6582)" fill="#f1bc86"/>
  <path d="M230.1768,632.9412c2.7894.5816,5.7039,1.9723,8.3405,1.5647,4.5328-.7007,8.8924-2.5225,13.3248-3.8735q1.02,4.4867,2.04,8.973c1.8571,4.9362,3.6454,9.9,5.5871,14.8025,3.0413,7.68-.5766,12.7285-7.107,15.4713-7.5759,3.1819-13.213.0953-16.4414-7.1256-2.8871-6.4573-6.7632-12.4979-9.326-19.0647C225.0843,639.8178,220.3571,633.5713,230.1768,632.9412Z" transform="translate(-83.831 -130.6582)" fill="#3f3d3c"/>
  <path d="M188.3633,645.61q12.309-1.153,24.6186-2.3037c-.3447,5.0692.2173,10.4266-1.2843,15.124-1.5822,4.95-4.2869,12.1418-8.0113,13.2422-6.9173,2.0441-14.96.6477-22.4535-.1106-.9006-.0911-2.5265-5.57-1.7037-7.7571C181.8932,657.5212,185.3412,651.6456,188.3633,645.61Z" transform="translate(-83.831 -130.6582)" fill="#3f3d3c"/>
  <path d="M140.036,657.6108l10.8906-.203c.9694,5.7927,1.939,11.5854,3.0252,18.0746H138.2252C138.8339,669.4754,139.435,663.5431,140.036,657.6108Z" transform="translate(-83.831 -130.6582)" fill="#3f3d3c"/>
  <path d="M405.5014,645.863q-.1015-1.5656-.2043-3.1336Q405.3977,644.2939,405.5014,645.863Z" transform="translate(-83.831 -130.6582)" fill="#fcf3f0"/>
  <path d="M431.784,233.0909q-.7308,3.2829-1.4643,6.5627c-8.1529,9.6224-17.039,18.4352-21.1807,31.1757-2.3424,7.2057-8.5056,13.08-17.5961,13.1339q-1.4157.84-2.83,1.6825c-11.1771-4.5415-9.9713-17.4088-16.712-24.9636-1.119-1.2541-1.0809-3.569-2.2322-4.7616-7.9152-8.2-12.2227-17.4963-9.6428-29.1294q5.2746-5.35,10.5174-10.6983,5.7012-.0143,11.4067-.0232l3.7895-.8963,2.6756-.6048c2.6015,1.2835,5.0939,3.2688,7.8288,3.6939,4.65.7228,9.4525.4634,14.1909.6167l4.1781,6.8762q.0588,1.6414.1181,3.2864c-8.7095-1.1945-17.8039-1.2154-26.0231-3.9084-8.7065-2.8527-14.6081.252-20.4557,5.3189-5.5045,4.7695-4.8654,9.2359-.8384,15.555,5.2779,8.2822,13.5734,14.385,15.7221,25.2393,1.87,9.445,6.1917,10.404,13.1141,6.124,10.3021-6.37,13.1473-13.6,10.1374-22.5979l15.3257-15.1836-6.8506-10.4048,14.1451,3.8554Z" transform="translate(-83.831 -130.6582)" fill="#546d89"/>
  <path d="M388.7127,285.6457q1.4148-.8419,2.83-1.6825c4.94,65.6827,6.2558,131.3822,1.0071,197.1177-.8877.0077-1.7741.0129-2.6593.02,1.107-23.5827,3.034-47.1645,3.1236-70.7533.13-34.1521-.9438-68.3123-1.8021-102.4616C391.0255,300.4566,389.579,293.0585,388.7127,285.6457Z" transform="translate(-83.831 -130.6582)" fill="#a66156"/>
  <path d="M468.8045,421.1969c-1.1477-3.1426-3.1073-6.2394-3.2879-9.4366-.5039-8.9189-.27-17.8794-.3275-26.8249q-.8825-16.2939-1.7662-32.5848-.8247-12.5727-1.65-25.1452c1.1485,2.6318,3.178,5.22,3.31,7.9019C466.4965,363.7953,467.6093,392.4981,468.8045,421.1969Z" transform="translate(-83.831 -130.6582)" fill="#cc9f7f"/>
  <path d="M461.739,384.8591q-.3192,12.6151-.641,25.2294-.6342-1.9356-1.263-3.8677-.79-1.7914-1.5808-3.586.0286-33.3717.0554-66.7436.8943,8.2375,1.7931,16.4752-.0086,1.69-.017,3.38.747,14.4927,1.4939,28.9853Z" transform="translate(-83.831 -130.6582)" fill="#daa17f"/>
  <path d="M460.1027,352.3664q-.8976-8.2375-1.7931-16.4752c.0021-4.0824.0021-8.1647.0021-12.9705,1.4381,1.7777,2.4492,3.0277,3.4611,4.2812q.8258,12.5779,1.6509,25.147Q461.764,352.3561,460.1027,352.3664Z" transform="translate(-83.831 -130.6582)" fill="#eeb595"/>
  <path d="M436.5285,251.6739l2.5352,8.8543-9.024-.0424q1.3084-4.4079,2.6171-8.8157Z" transform="translate(-83.831 -130.6582)" fill="#ee9973"/>
  <path d="M458.2542,402.6348q.7906,1.7938,1.5808,3.586-10.83-4.3952-21.6595-8.7869l.0777-.0779Z" transform="translate(-83.831 -130.6582)" fill="#af7b62"/>
  <path d="M415.0387,479.6271q-10.3055.86-20.611,1.7221Q404.7332,480.4909,415.0387,479.6271Z" transform="translate(-83.831 -130.6582)" fill="#a66156"/>
  <path d="M429.1475,390.2171l-2.5466-1.8181,1.0716-.9749,1.5968,2.67Z" transform="translate(-83.831 -130.6582)" fill="#af7b62"/>
  <path d="M434.6164,393.7566q1.8183,1.8,3.6367,3.6l-.0776.0777q-1.81-1.8075-3.6207-3.615Z" transform="translate(-83.831 -130.6582)" fill="#af7b62"/>
  <path d="M434.5548,393.8189l-.7678-.4067.8295.3443Z" transform="translate(-83.831 -130.6582)" fill="#af7b62"/>
  <path d="M429.2693,390.0939l.76.8246q-.441-.3505-.8817-.7012Z" transform="translate(-83.831 -130.6582)" fill="#af7b62"/>
  <path d="M461.0481,413.7893q-.3516,1.0138-.7,2.0282Q460.7006,414.8038,461.0481,413.7893Z" transform="translate(-83.831 -130.6582)" fill="#daa17f"/>
  <path d="M313.4657,359.742c-6.84-1.1874-5.1-6.6323-5.4725-11.0282q.9381-2.85,1.8789-5.7008-.7491-.8025-1.4992-1.6089c1.5943-3.4537,3.1078-6.9476,4.8057-10.35,1.6849-3.3756,3.5553-6.6586,6.0977-11.3816,4.6254,1.1652,10.9739,1.1524,15.1206,4.1681,7.1147,5.174,6.2989,17.5794-.45,23.35-4.2781,3.658-8.8188,7.0087-13.2414,10.4965q-.8857.8454-1.7724,1.6923Z" transform="translate(-83.831 -130.6582)" fill="#eeb595"/>
  <path d="M326.4523,385.0389c3.0924-4.1968,6.0419-8.5092,9.3178-12.5575,3.1983-3.9522,6.73-7.6347,10.039-11.35,4.8341,3.3327,11.81,5.62,13.3457,9.8728,1.7136,4.746-.618,11.6475-2.8071,16.9416-3.0861,7.4632-10.0485,4.3192-15.7816,3.9166-3.9743-1.3011-7.9987-2.4777-11.89-3.9949C327.7133,387.4924,327.1818,386.0115,326.4523,385.0389Z" transform="translate(-83.831 -130.6582)" fill="#a66156"/>
  <path d="M326.4523,385.0389c.73.9726,1.261,2.4535,2.2234,2.8286,3.8917,1.5172,7.9161,2.6938,11.89,3.9949-3.8173-.2308-7.6335-.46-11.8181-.7123-8.3374,22.5193-3.8066,45.935-3.4768,68.84.0562,3.9043,11.4545,7.9448,17.94,11.2865,2.1228,1.0936,5.2834.172,8.57.172-.8985,1.7877-1.5278,3.04-2.1567,4.294q-5.1977-1.1367-10.3964-2.276-5.6769-1.0526-11.3508-2.1063-3.4762-.96-6.9577-1.9213l.0764.0874c.3556-19.734.8375-39.4676,1.0257-59.2039.1216-12.7536,4.1888-26.51-8.2689-36.45C322.3,372.6871,323.1772,380.2269,326.4523,385.0389Z" transform="translate(-83.831 -130.6582)" fill="#daa17f"/>
  <path d="M313.753,373.8724c12.4577,9.94,8.3905,23.6961,8.2689,36.45-.1882,19.7363-.67,39.47-1.0257,59.2039-1.2778-5.045-3.5052-10.06-3.66-15.139-.4755-15.5632-.17-31.1508-.1284-46.7288.0056-2.0869-.184-4.3107.4383-6.2381,4.8-14.8654,4.3409-15.3926-7.801-24.3127-2.4142-1.7735-2.3125-6.9728-3.37-10.5929q3.3617,3.0087,6.7186,6.021A2.8066,2.8066,0,0,0,313.753,373.8724Z" transform="translate(-83.831 -130.6582)" fill="#e5dad6"/>
  <path d="M386.2472,481.2669q-3.1023-.155-6.2055-.3092Q383.1437,481.113,386.2472,481.2669Z" transform="translate(-83.831 -130.6582)" fill="#a66156"/>
  <path d="M308.3729,341.4041q.75.8053,1.4992,1.6089Q309.122,342.2068,308.3729,341.4041Z" transform="translate(-83.831 -130.6582)" fill="#daa17f"/>
  <path d="M318.9331,359.38q.8865-.8466,1.7724-1.6924Q319.819,358.5342,318.9331,359.38Z" transform="translate(-83.831 -130.6582)" fill="#daa17f"/>
  <path d="M355.3164,621.494q-.3091-23.983-.6182-47.9647.4635-6.6122.9267-13.2273l-.3085.0435Z" transform="translate(-83.831 -130.6582)" fill="#2f2220"/>
  <path d="M410.5346,218.8791c-4.7384-.1533-9.541.1061-14.1909-.6167-2.7349-.4251-5.2273-2.41-7.8272-3.6939,13.1719-7.4094,16.4428-12.8975,14.32-24.7337-4.534-.6167-9.273-1.9054-13.97-1.7665-9.853.2914-19.6837,1.3336-29.5236,2.0676-1.5934-13.8632-1.5934-13.8632,11.4094-16.1383l-9.1569-2.0591c.5786-3.1395,1.0863-5.8939,1.1433-6.2032L401.31,162.232c-2.4369,8.5707-1.1382,16.8224,13.8963,18.0581C401.1674,193.2875,414.8629,206.4674,410.5346,218.8791Z" transform="translate(-83.831 -130.6582)" fill="#8b6456"/>
  <path d="M359.3435,190.1359c9.84-.734,19.6706-1.7762,29.5236-2.0676,4.6968-.1389,9.4358,1.15,13.97,1.7665,2.1224,11.8362-1.1485,17.3243-14.32,24.7337q-1.34.3024-2.6782.6051l-3.7885.896q-5.7044.01-11.4067.0232a.7274.7274,0,0,0-.8479-.42q-.78-.2-1.5632-.4C358.2422,206.9577,355.5342,199.3,359.3435,190.1359Z" transform="translate(-83.831 -130.6582)" fill="#fcf3f0"/>
  <path d="M414.831,229.04q-.0593-1.6427-.1183-3.2846c6.1839-.3106,12.4113-.7088,14.3951,7.2837q-7.0733-1.9269-14.1455-3.8548Z" transform="translate(-83.831 -130.6582)" fill="#3f3d3c"/>
  <path d="M353.84,178.4116c-4.6478-4.6986-.9358-7.5755,2.2994-10.557Q354.9894,173.1323,353.84,178.4116Z" transform="translate(-83.831 -130.6582)" fill="#fcf3f0"/>
  <path d="M368.232,215.2723q.7825.2,1.5632.4Q369.0114,215.4722,368.232,215.2723Z" transform="translate(-83.831 -130.6582)" fill="#546d89"/>
  <path d="M235.8321,243.8549q-.9578-.0942-1.9165-.1891c-2.3027-2.7117-4.6042-5.4226-7.1906-8.4692l5.6226-4.7737c-7.5751-1.8817-17.1675-.099-16.3642-11.5078,1.7831-2.5334,3.5658-5.0717,3.8583-5.488,8.06.6791,13.997.7816,19.77,1.807,3.7993.6748,7.3624,2.68,11.024,4.0806q3.9632,1.3658,7.9412,2.7493a2.3429,2.3429,0,0,1,.6752.6631c-1.94,1.0474-3.7785,2.6437-5.8385,3.0161-4.7841.8651-11.0909-2.721-13.9172,6.5586l16.7368,7.0546Z" transform="translate(-83.831 -130.6582)" fill="#eeb595"/>
  <path d="M258.5772,222.064q-3.9743-1.3791-7.9412-2.7493Q254.614,220.6982,258.5772,222.064Z" transform="translate(-83.831 -130.6582)" fill="#e6c4a2"/>
  <path d="M460.1027,352.3664q1.6608-.0095,3.321-.0175.8823,16.2942,1.7654,32.5865-1.7258-.038-3.45-.0776l-.1591-.1258q-.7467-14.4924-1.4941-28.9859Q460.0943,354.0563,460.1027,352.3664Z" transform="translate(-83.831 -130.6582)" fill="#e6c4a2"/>
  <path d="M320.92,469.4386q3.48.961,6.9577,1.9213Q324.396,470.3983,320.92,469.4386Z" transform="translate(-83.831 -130.6582)" fill="#e5dad6"/>
  <path d="M414.9623,229.1842l6.8506,10.4048-15.3257,15.1836c3.01,8.998.1647,16.2283-10.1374,22.5979-6.9224,4.28-11.2444,3.321-13.1141-6.124-2.1487-10.8543-10.4442-16.9571-15.7221-25.2393-4.027-6.3191-4.6661-10.7855.8384-15.555,5.8476-5.0669,11.7492-8.1716,20.4557-5.3189,8.2192,2.693,17.3136,2.7139,26.0231,3.9084Zm-33.2135,22.002c.8894,3.9483,1.44,6.391,1.91,8.478,10.743-5.8768,7.8657,5.3986,11.7953,9.332.965-5.313,1.7407-9.584,2.5057-13.7956Z" transform="translate(-83.831 -130.6582)" fill="#5f7aa4"/>
  <path d="M382.05,216.07l3.7885-.896Z" transform="translate(-83.831 -130.6582)" fill="#8b6456"/>
  <path d="M460.0857,355.7461q.7473,14.4933,1.4941,28.9859Q460.8325,370.2384,460.0857,355.7461Z" transform="translate(-83.831 -130.6582)" fill="#eeb595"/>
  <path d="M381.7488,251.1862l16.2109,4.0144c-.765,4.2116-1.5407,8.4826-2.5057,13.7956-3.93-3.9334-1.0523-15.2088-11.7953-9.332C383.1885,257.5772,382.6382,255.1345,381.7488,251.1862Z" transform="translate(-83.831 -130.6582)" fill="#546d89"/>
</svg>
