<svg id="Layer_1" data-name="Layer 1" xmlns="http://www.w3.org/2000/svg" width="127.508mm" height="27.1728mm" viewBox="0 0 361.4401 77.0252">
  <path d="M153.4043,373.1886c-3.2867-.0017-6.5782.0867-9.8561-.0847a2.4615,2.4615,0,0,1-1.6984-1.6889c-.1734-3.1834-.0012-6.3841-.1133-9.573-.0609-1.7354.7639-2.0023,2.2167-1.9987,3.1833.0079,6.367-.114,9.5508-.1832a10.8474,10.8474,0,0,0,.5434-2.346c.0494-6.2126.0339-12.4257.0383-18.6387,4.8069-.0413,9.616-.0111,14.42-.1556,2.2566-.0679,1.7685,1.4232,1.77,2.6514q.0209,22.6377-.0007,45.2756c-.0035,2.625.8717,6.3779-.473,7.5792-1.5582,1.3921-5.1188.601-7.8121.6476-2.6375.0456-5.2774-.0471-7.9163-.079,0-6.1893.0277-12.3788-.0305-18.5675A13.5335,13.5335,0,0,0,153.4043,373.1886Z" transform="translate(-122.2061 -334.0355)" fill="#0e5d94"/>
  <path d="M240.5774,364.3844c0,9.3366-.0511,18.6738.0434,28.0094.0189,1.8594-.48,2.4166-2.3489,2.34-3.6719-.15-7.3567-.1206-11.0313-.0077-1.5214.0467-1.8609-.4536-1.8575-1.8992q.0678-28.4341.0016-56.8683c-.0032-1.4267.3052-1.96,1.8465-1.9106,3.6743.1173,7.3591.1424,11.0312-.006,1.858-.0751,2.3777.4625,2.3585,2.3329C240.5254,345.7107,240.5773,355.0478,240.5774,364.3844Z" transform="translate(-122.2061 -334.0355)" fill="#0a0b0b"/>
  <path d="M249.7645,381.7976c0-8.68.0936-17.3618-.0624-26.039-.0418-2.3209.6958-2.8266,2.83-2.7239,3.4828.1675,6.9807.0977,10.47.02,1.4379-.0318,1.9631.3811,1.9591,1.9073q-.0711,27.0306.0027,54.0612c.005,1.6991-.6415,2.0507-2.1659,2.0129-3.583-.0889-7.1747-.14-10.753.0169-1.9048.0838-2.3409-.5428-2.3222-2.367C249.8148,399.7242,249.7645,390.7606,249.7645,381.7976Z" transform="translate(-122.2061 -334.0355)" fill="#0b0c0d"/>
  <path d="M138.2193,394.5918c-4.7087.0312-9.4188.0087-14.1255.1246-1.5165.0374-1.8911-.494-1.8877-1.9367q.0622-26.1453.0018-52.2909c-.0031-1.4208.34-2.0028,1.8765-1.9624,4.7053.1235,9.414.1112,14.1216.1518Q138.2129,366.6351,138.2193,394.5918Z" transform="translate(-122.2061 -334.0355)" fill="#025b93"/>
  <path d="M403.2558,378.8359c0,4.6227-.0692,9.247.0378,13.8672.0372,1.6071-.43,2.0752-2.0292,2.0228-3.581-.1173-7.1735-.1484-10.7516.0081-1.939.0848-2.5511-.4093-2.52-2.4463.1241-8.017.0657-16.0372.0366-24.056-.0131-3.6021-.4675-4.1316-4.082-4.1247-4.8067.0091-9.62.0945-14.4157.3906-1.8185.1123-2.3269-.3325-2.228-2.0839.1274-2.257-.0966-4.5381.1057-6.7841a2.65,2.65,0,0,1,1.563-1.9351c8.3137-1.3055,16.67-2.0478,25.0189-.3694,5.8127,1.1686,8.2855,3.5657,8.7566,9.4133.43,5.3333.0911,10.7284.0911,16.0963Z" transform="translate(-122.2061 -334.0355)" fill="#080909"/>
  <path d="M460.3592,367.1754c0,4.1522.05,8.3052-.0184,12.4562-.0431,2.6007,1.1973,3.9174,3.7094,3.92,5.0847.0061,10.1735,0,15.2526-.2016,1.9646-.0781,3.0255.12,2.695,2.4616a15.1743,15.1743,0,0,0,.0083,4.7982c.5488,2.9693-1.0061,3.941-3.4844,3.9727-7.1457.0916-14.3262.511-21.43-.0288-7.0572-.5362-10.8971-4.6668-11.3636-11.7827a132.5068,132.5068,0,0,1,.0889-18.8975c.5757-7.3917,5.3525-10.4133,12.9859-11.0351.4446-.0362,1.3906,1.0258,1.4069,1.5965.1209,4.2439.0656,8.4927.0656,12.74Z" transform="translate(-122.2061 -334.0355)" fill="#0b0c0d"/>
  <path d="M193.7351,366.8831c.002,3.7712-.0242,7.5426.0088,11.3135.0387,4.4294.7426,5.355,5.2164,5.4857,4.604.1344,9.2277-.0532,13.8288-.331,2.058-.1242,2.9387.2712,2.6545,2.5034a15.7,15.7,0,0,0,.0122,4.7938c.559,2.9867-1.0515,3.91-3.4921,3.9451-7.0443.1-14.1186.4822-21.1273-.0113-6.802-.4791-10.849-4.1111-11.415-10.755a117.8228,117.8228,0,0,1,.2953-21.6595c.5772-5.7483,7.1915-10.0512,12.9283-9.3479.4224.0518,1.0278,1.05,1.04,1.6193C193.7741,358.5856,193.733,362.7348,193.7351,366.8831Z" transform="translate(-122.2061 -334.0355)" fill="#050606"/>
  <path d="M289.1361,375.2474c-.5187,3.3046-.827,8.0464-2.0673,12.53-1.94,7.0121-11.509,10.1147-17.6481,6.0751-.3762-.2476-.96-.6012-.9694-.92-.0958-3.1961-.1239-6.3959-.0446-9.5916.0054-.22,1.0239-.5928,1.57-.59,2.244.01,3.3435-1.17,3.3852-3.2722q.1121-5.6489-.0154-11.3013c-.044-1.9227-.8537-3.31-3.1368-2.9762-1.7415.2542-2.0181-.6685-1.941-2.1365a30.1122,30.1122,0,0,0-.025-5.6482c-.3709-2.69,1.017-3.6284,3.2722-4.3031,9.1718-2.7442,15.5852,1.46,16.7294,11.1549C288.62,367.4435,288.7707,370.6448,289.1361,375.2474Z" transform="translate(-122.2061 -334.0355)" fill="#050606"/>
  <path d="M357.46,378.3359c0,4.71-.0574,9.421.0321,14.1293.03,1.5789-.153,2.3646-2.069,2.273-3.6654-.1754-7.3478-.1332-11.0177-.0133-1.6259.0531-2.0534-.4592-2.0367-2.0491.0779-7.4409.1022-14.8841-.0057-22.3243-.0339-2.3407.7434-5.5408-3.4983-5.2152a.7877.7877,0,0,1-.6356-.4061c-.6152-2.8353-1.262-5.6688-1.691-8.5342-.0678-.4526.797-1.2281,1.3937-1.5675a15.0637,15.0637,0,0,1,14.0622-.8546c4.29,1.8884,5.1443,6.0256,5.327,10.1527.2122,4.7944.0495,9.6054.0495,14.4093Z" transform="translate(-122.2061 -334.0355)" fill="#040404"/>
  <path d="M334.744,379.0973c0,4.6151-.0418,9.2309.0268,13.8451.0193,1.2925-.2531,1.8166-1.6826,1.78-3.8592-.0984-7.7255-.1229-11.5828.0068-1.7353.0584-1.9706-.65-1.9588-2.1389.061-7.7228.0368-15.4465.0171-23.17-.0057-2.2147.12-4.5616-3.2664-4.31-.251.0186-.8027-.8736-.8185-1.3553a67.7722,67.7722,0,0,1,.0358-7.6219,3.204,3.204,0,0,1,1.5967-2.1869,16.4939,16.4939,0,0,1,11.2892-.86,6.8328,6.8328,0,0,1,5.007,5.2621,39.4168,39.4168,0,0,1,1.2695,8.0367c.2053,4.2284.0544,8.4741.0544,12.7126Z" transform="translate(-122.2061 -334.0355)" fill="#080909"/>
  <path d="M296.8277,373.8973c0-6.1277.0884-12.2574-.05-18.382-.0458-2.029.5882-2.5538,2.5292-2.4735,3.5763.1478,7.1635.0775,10.745.0238,1.3056-.02,2.049.1168,2.04,1.782-.0678,12.7264-.0185,25.4535-.1,38.18a2.1844,2.1844,0,0,1-1.4177,1.5872c-4.05.1318-8.1068.0061-12.1579.1079-1.5376.0387-1.6154-.6842-1.6078-1.8765C296.8493,386.53,296.8278,380.2136,296.8277,373.8973Z" transform="translate(-122.2061 -334.0355)" fill="#060706"/>
  <path d="M424.52,364.6512c-4.4294,0-8.8635-.12-13.2861.0529-2.0734.0811-2.6522-.6325-2.3869-2.5322a21.568,21.568,0,0,0,.0223-2.5417c.04-2.067-.6165-4.6445.38-6.0291.7172-.9968,3.6632-.2863,5.5752-.5888a2.2719,2.2719,0,0,0,1.51-1.5552c.1537-2.9134-.0281-5.8455.1531-8.7557a2.4511,2.4511,0,0,1,1.693-1.6817c3.9521-.1532,7.9152-.1388,11.8689-.0062a2.1973,2.1973,0,0,1,1.4593,1.5607c.1492,2.9139.132,5.8414.0413,8.76-.0411,1.32.2826,1.9806,1.7017,1.7533a4.2339,4.2339,0,0,1,.847-.0028c2.1431.0952,5.1381-.6078,6.1941.5138,1.1029,1.1712.374,4.1.3843,6.2608.0228,4.7917.0071,4.7918-4.8483,4.7918Z" transform="translate(-122.2061 -334.0355)" fill="#070707"/>
  <path d="M473.5972,377.2c-2.7305,0-5.4626-.0564-8.1906.0246-1.3027.0388-1.9347-.2991-1.7906-1.7125a11.665,11.665,0,0,0-.0043-2.82c-.3242-2.2485.3292-3.2794,2.8234-2.9929.9135.105,2.7672-.6552,2.7594-.9869-.0739-3.1262-.2006-5.8318-2.6467-5.6662-3.0349.2055-3.1045-1.3642-2.9347-3.5463a20.9544,20.9544,0,0,0-.0117-4.2313c-.2963-2.3363.4955-3.2641,2.899-2.9018,2.8769.4337,5.8339.4605,8.6564,1.1022a9.7472,9.7472,0,0,1,7.9078,9.1252c.3437,4.2167.3364,8.4609.5717,12.688.08,1.44-.3041,2.0158-1.8492,1.95C479.0616,377.1165,476.3276,377.2,473.5972,377.2Z" transform="translate(-122.2061 -334.0355)" fill="#080909"/>
  <path d="M378.8313,369.7932c.283,0,.5661-.0029.8492,0,5.0519.0589,4.9712.06,5.0359,5.0943.0229,1.7813-.3619,2.5346-2.2869,2.3651-2.53-.2228-2.8724,1.5536-2.8084,3.5225.0643,1.9756.1852,4,2.9663,3.7274,1.87-.1836,2.29.6705,2.1,2.2883a19.5771,19.5771,0,0,0-.0148,2.2629c0,4.5716-.722,5.4056-5.2761,6.095-9.106,1.3785-13.8852-2.4883-14.2869-11.6606a37.1345,37.1345,0,0,1,.252-5.9309c.4995-4.2519,2.7118-6.5486,7.0036-7.2691,2.1275-.3572,4.2967-.4654,6.4471-.6863Z" transform="translate(-122.2061 -334.0355)" fill="#070809"/>
  <path d="M207.0708,377.2c-2.7354,0-5.4729-.062-8.2054.0266-1.32.0429-1.9615-.3088-1.7492-1.7131a7.5455,7.5455,0,0,0,.0082-1.1307c-.0076-4.2851-.0019-4.2312,4.19-4.6747a2.1923,2.1923,0,0,0,1.4109-1.5632c.2344-3.6712-.6417-4.5961-4.34-5.3008a1.8812,1.8812,0,0,1-1.2028-1.3151,74.5671,74.5671,0,0,1,.0058-7.6342c.0295-.5315.9086-1.4881,1.3268-1.4517a75.39,75.39,0,0,1,10.8793,1.3356c5.3055,1.26,7.1127,5.4955,7.4341,10.4327.2448,3.76.0888,7.5442.2286,11.3133.0526,1.4185-.475,1.7425-1.7809,1.7015C212.5436,377.14,209.8063,377.2,207.0708,377.2Z" transform="translate(-122.2061 -334.0355)" fill="#070708"/>
  <path d="M431.5787,381.3694c0,3.8674-.0539,7.736.0294,11.6016.0289,1.339-.3322,1.7818-1.7174,1.75-3.96-.0906-7.9247.0289-11.8821-.1023a2.2047,2.2047,0,0,1-1.5339-1.5106q-.1491-11.8835-.0055-23.7688a2.0277,2.0277,0,0,1,1.4029-1.3986c4.0528-.1158,8.1121.0034,12.1655-.1011,1.6029-.0413,1.5645.8,1.5544,1.9276C431.5575,373.6344,431.5788,377.502,431.5787,381.3694Z" transform="translate(-122.2061 -334.0355)" fill="#090a0a"/>
  <path d="M138.2193,394.5918q-.0066-27.9567-.0133-55.9136a7.3467,7.3467,0,0,1,.5526,1.93q.0457,26.028.0006,52.0559A7.451,7.451,0,0,1,138.2193,394.5918Z" transform="translate(-122.2061 -334.0355)" fill="#1d597e"/>
  <path d="M154.0857,338.6754c-.0044,6.213.0111,12.4261-.0383,18.6387a10.8474,10.8474,0,0,1-.5434,2.346c.0013-6.1681-.0188-12.3366.03-18.5047A11.8641,11.8641,0,0,1,154.0857,338.6754Z" transform="translate(-122.2061 -334.0355)" fill="#316383"/>
  <path d="M153.4043,373.1886a13.5335,13.5335,0,0,1,.6381,2.8385c.0582,6.1887.03,12.3782.0305,18.5675a12.5,12.5,0,0,1-.5407-2.4957C153.453,385.7959,153.4388,379.4921,153.4043,373.1886Z" transform="translate(-122.2061 -334.0355)" fill="#316383"/>
</svg>
