<svg id="Layer_2" data-name="Layer 2" xmlns="http://www.w3.org/2000/svg" width="210.0016mm" height="297.0001mm" viewBox="0 0 595.28 841.89">
  <path d="M180.88,399.4419c0-12.6.07-25.19-.06-37.79-.03-2.54.67-3.27,3.19-3.17,5.01.2,10.03.16,15.04.01,2.07-.06,2.56.62,2.55,2.61q-.09,38.76,0,77.51c.01,2.05-.59,2.62-2.59,2.57-5.01-.12-10.03-.19-15.04.02-2.57.11-3.18-.7-3.16-3.2C180.94,425.1519,180.88,412.2919,180.88,399.4419Z"/>
  <path d="M84.62,441.1419c-6.49,0-12.79-.1-19.08.05-2.55.06-2.44-1.83-2.86-3.27q-7.8-26.19-15.51-52.4c-2.02-6.83-4.05-13.65-6.19-20.89,7.4,0,14.45.04,21.5-.03,1.63-.02,1.94,1.1,2.22,2.14q9.84,36.165,19.6,72.37C84.45,439.6819,84.49,440.3019,84.62,441.1419Z" fill="#7656eb"/>
  <path d="M410.64,403.4019c0,5.65.08,11.3-.03,16.95-.08,3.91,1.87,5.56,5.56,5.78a105.1267,105.1267,0,0,0,20.38-.37c2.82-.39,4.07.27,3.61,3.34a34.7232,34.7232,0,0,0-.04,5c0,6.42,0,6.4-6.29,7.06-8.96.94-17.92,1.36-26.89.03-10.31-1.52-15.16-6.46-16.33-16.78a101.9936,101.9936,0,0,1,.19-25.36c1.35-9.91,7.19-13.99,17.9-15.07,2.16-.22,1.82,1.22,1.82,2.47.01,5.65,0,11.3,0,16.95Z"/>
  <path d="M472.43,403.3419c0,5.78.05,11.56-.02,17.34-.04,3.52,1.71,5.14,5.09,5.39a101.4355,101.4355,0,0,0,20.76-.3c2.69-.35,4.15.09,3.67,3.27a37.2315,37.2315,0,0,0-.05,5.39c0,6.04,0,6.06-5.85,6.69-9.09.98-18.17,1.42-27.27.08-10.34-1.53-15.22-6.45-16.38-16.73a102.4752,102.4752,0,0,1,.18-25.36c1.33-9.89,7.08-14.01,17.85-15.13,2.09-.22,1.89,1.1,1.89,2.41-.01,5.65,0,11.3,0,16.95Z"/>
  <path d="M102.58,364.6219c2.83,0,5.66.08,8.48-.02,2.29-.08,2.86.51,2.12,2.9-3.57,11.7-6.92,23.46-10.39,35.18q-5.265,17.775-10.6,35.53c-.35,1.16-.19,2.84-1.99,2.81-1.73-.02-1.25-1.7-1.53-2.68-2.68-9.55-5.27-19.12-7.93-28.67a9.0993,9.0993,0,0,1-.04-4.91c3.27-12.42,6.56-24.85,9.78-37.28.56-2.17,1.64-3.12,4.01-2.92C97.16,364.8019,99.88,364.6219,102.58,364.6219Z" fill="#7656eb"/>
  <path d="M332.09,418.3219c0,7.47-.08,13.64.04,19.79.04,2.16-.21,3.22-2.82,3.09-4.99-.24-10.02-.22-15.01-.01-2.52.11-2.92-.83-2.91-3.08.07-10.65-.06-21.31-.06-31.96,0-3.21-.64-5.71-4.67-5.29-1.76.19-2.18-.75-2.13-2.31a41.4785,41.4785,0,0,0-.04-7.31c-.6-4.08,1.37-5.8,4.97-6.71a25.6777,25.6777,0,0,1,12.56-.12c5.69,1.4,8.39,5.5,9.33,10.99C332.73,403.4519,331.79,411.5619,332.09,418.3219Z"/>
  <path d="M234.79,403.5919c0,5.66-.02,11.31.01,16.97.01,2.76,1.26,4.48,4.21,4.24,2.28-.18,2.46,1.03,2.38,2.8a39.7518,39.7518,0,0,0,.04,7.32c.54,3.65-1.43,5.14-4.4,6.01a23.73,23.73,0,0,1-13.69.08c-4.94-1.47-7.57-5.13-8.51-10.01a44.2831,44.2831,0,0,1-.81-8.04c-.09-11.83,0-23.67-.11-35.5-.02-2.25.36-3.17,2.89-3.06,4.88.23,9.78.24,14.66,0,2.76-.14,3.19,1,3.12,3.36-.14,5.27-.04,10.55-.04,15.82A1.929,1.929,0,0,0,234.79,403.5919Z"/>
  <path d="M149.07,422.4119c0-5.53.09-11.07-.02-16.6-.11-5.31-.65-5.92-5.77-6.45-1.54-.16-1.95-.67-1.93-2.08.06-3.86.08-7.72-.01-11.58-.04-1.63.43-2.34,2.17-2.21,5.12.36,10.25.33,15.26,1.85,6.11,1.86,9.49,6,10.34,12.12a117.8229,117.8229,0,0,1,.27,29.25c-1,8.95-5.11,12.98-13.87,14.4-6.39,1.04-6.39,1.04-6.39-5.57v-13.12A.0749.0749,0,0,0,149.07,422.4119Z"/>
  <path d="M136.78,403.8919c0,5.53-.09,11.06.03,16.58.1,4.76.81,5.53,5.62,5.86,1.73.12,2.12.65,2.08,2.24-.1,3.73-.09,7.46,0,11.18.04,1.57-.27,2.3-2.08,2.26-5.15-.1-10.27-.22-15.27-1.65-5.92-1.69-9.52-5.61-10.37-11.61a109.933,109.933,0,0,1,.01-31.89c1.25-8.28,10.66-14.52,18.67-12.98,1.95.37,1.21,1.69,1.22,2.64.07,5.78.03,11.57.03,17.35A.0735.0735,0,0,0,136.78,403.8919Z"/>
  <path d="M515.41,412.6719c0-8.35.1-16.7-.06-25.04-.05-2.6.76-3.3,3.27-3.21,5,.18,10.02.14,15.02.01,1.87-.05,2.38.51,2.38,2.37q-.105,26.01,0,52.01c.01,1.85-.51,2.4-2.36,2.36-5.26-.12-10.53-.14-15.79.01-2.18.06-2.51-.82-2.49-2.7C515.45,429.8819,515.41,421.2819,515.41,412.6719Z"/>
  <path d="M266.56,412.9319c0,8.34-.08,16.69.05,25.03.04,2.36-.37,3.38-3.06,3.25-4.87-.24-9.76-.14-14.63-.03-1.97.04-2.92-.22-2.91-2.61q.165-25.605.02-51.22c-.01-2.05.38-2.99,2.71-2.91q7.695.255,15.4,0c2.21-.07,2.46.87,2.45,2.7C266.52,395.7319,266.56,404.3319,266.56,412.9319Z"/>
  <path d="M279.44,412.9619c0-8.49.07-16.98-.05-25.47-.03-2.24.36-3.19,2.9-3.08,5.01.22,10.03.16,15.05.02,2.06-.06,2.59.61,2.58,2.61q-.105,25.86.01,51.71c.01,2.27-.94,2.44-2.72,2.41-5.02-.08-10.04-.13-15.05.02-2.17.07-2.81-.56-2.78-2.76C279.52,429.9419,279.44,421.4519,279.44,412.9619Z"/>
  <path d="M361.91,400.1619c-6.17,0-12.35-.07-18.52.04-2,.03-3.05-.26-2.92-2.64.2-3.59.17-7.2.01-10.8-.09-1.98.69-2.27,2.45-2.32,7.94-.25,7.94-.31,7.94-8.39,0-8.12,0-8.12,8.26-8.12,3.34,0,6.69.1,10.03-.04,1.9-.08,2.43.6,2.37,2.42-.12,3.85.06,7.72-.07,11.57-.07,1.96.45,2.73,2.55,2.66,3.18-.1,7.67-1.11,9.23.53,2.07,2.18.48,6.58.67,10.01.04.77-.08,1.55.02,2.31.29,2.13-.46,2.88-2.71,2.83C374.77,400.0619,368.34,400.1619,361.91,400.1619Z"/>
  <path d="M428.62,417.2919c-3.72,0-7.45-.06-11.17.03-1.58.04-2.46-.31-2.24-2.1a21.95,21.95,0,0,0,.02-2.69c0-5.15,0-5.27,5.15-5.27,2.27,0,2.85-.67,2.57-2.86-.46-3.63-.79-7.16-5.85-6.64-1.66.17-1.9-.81-1.88-2.13q.045-5.01,0-10.01c-.01-1.36.3-2.2,1.93-2.11,4.86.28,9.76.24,14.48,1.69,6.08,1.86,9.45,6.1,10.01,12.28.52,5.74.44,11.54.77,17.3.12,2.08-.65,2.64-2.62,2.57C436.07,417.2019,432.34,417.2919,428.62,417.2919Z"/>
  <path d="M490.39,417.2919c-3.59,0-7.19-.09-10.78.03-1.89.06-2.96-.33-2.63-2.48a16.1664,16.1664,0,0,0,.02-2.31c0-5.16,0-5.28,5.14-5.28,2.25,0,2.86-.64,2.58-2.86-.46-3.62-.78-7.16-5.84-6.65-1.65.17-1.9-.79-1.89-2.13q.045-5.01,0-10.01c-.01-1.35.29-2.21,1.92-2.11,4.86.27,9.76.24,14.48,1.68,6.08,1.86,9.45,6.09,10.02,12.27.52,5.74.45,11.54.77,17.3.12,2.08-.64,2.65-2.62,2.58C497.84,417.2019,494.11,417.2919,490.39,417.2919Z"/>
  <path d="M371.49,422.8319c0,5.26-.09,10.53.04,15.78.05,1.98-.47,2.64-2.53,2.58-5.26-.15-10.52-.12-15.78-.01-1.87.04-2.4-.57-2.38-2.41q.12-15.78,0-31.57c-.02-2.04.65-2.66,2.64-2.61,5.26.11,10.52.13,15.78-.01,1.99-.05,2.3.75,2.27,2.46C371.43,412.3019,371.49,417.5619,371.49,422.8319Z"/>
  <path d="M540.63,404.6419c0-5.18.04-10.17-.01-15.15-.03-3.3,2.68-3.83,4.82-4.66,7.35-2.84,8.54-2,8.54,5.58v1.16c-.01,3.09.87,6.56-.25,9.16-1.36,3.14-5.52.96-8.23,2.12C543.9905,403.5019,542.41,403.9919,540.63,404.6419Z" fill="#010101"/>
</svg>
