<svg id="Layer_1" data-name="Layer 1" xmlns="http://www.w3.org/2000/svg" width="25.5781mm" height="27.043mm" viewBox="0 0 72.5048 76.6574">
  <g>
    <path d="M296.0488,389.3912c-6.49,0-12.79-.1-19.08.05-2.55.06-2.44-1.83-2.86-3.27q-7.8-26.19-15.51-52.4c-2.02-6.83-4.05-13.65-6.19-20.89,7.4,0,14.45.04,21.5-.03,1.63-.02,1.94,1.1,2.22,2.14q9.84,36.165,19.6,72.37C295.8788,387.9312,295.9188,388.5512,296.0488,389.3912Z" transform="translate(-252.4088 -312.7851)" fill="#7656eb"/>
    <path d="M314.0088,312.8712c2.83,0,5.66.08,8.48-.02,2.29-.08,2.86.51,2.12,2.9-3.57,11.7-6.92,23.46-10.39,35.18q-5.265,17.775-10.6,35.53c-.35,1.16-.19,2.84-1.99,2.81-1.73-.02-1.25-1.7-1.53-2.68-2.68-9.55-5.27-19.12-7.93-28.67a9.0993,9.0993,0,0,1-.04-4.91c3.27-12.42,6.56-24.85,9.78-37.28.56-2.17,1.64-3.12,4.01-2.92C308.5888,313.0512,311.3088,312.8712,314.0088,312.8712Z" transform="translate(-252.4088 -312.7851)" fill="#7656eb"/>
    <path d="M295.82,339.1143q-1.8456,7.0086-3.6916,14.0153a9.1,9.1,0,0,0,.04,4.91c2.66,9.55,5.25,19.12,7.93,28.67.28.98-.2,2.66,1.53,2.68a1.51,1.51,0,0,0,1.1787-.4206Z" transform="translate(-252.4088 -312.7851)" fill="#4452a0" opacity="0.6"/>
    <path d="M292.2176,387.8018c-5.5709-.207-9.6958-.2852-12.2775-.1323a4.605,4.605,0,0,1-3.1975-.7613,4.2075,4.2075,0,0,1-1.3761-2.4255c-1.3056-5.7487-17.7924-54.779-16.7234-55.0213.1644-.0372.361,1.1649,2.0426,6,2.77,7.9651,7.3278,21.07,15.8061,33.83A104.6265,104.6265,0,0,0,292.2176,387.8018Z" transform="translate(-252.4088 -312.7851)" fill="#fff" opacity="0.45"/>
    <path d="M277.2814,382.0571" transform="translate(-252.4088 -312.7851)" fill="#fff"/>
  </g>
</svg>
