<svg id="Layer_1" data-name="Layer 1" xmlns="http://www.w3.org/2000/svg" width="119.0235mm" height="199.5757mm" viewBox="0 0 337.3893 565.7264">
  <path d="M409.568,188.3666c18.0622,9.3628,27.5169,25.5748,34.267,43.7177,5.4348,14.6077,9.9991,29.5412,15.5071,44.1195,5.1445,13.6161,4.049,26.8656-1.5827,39.74-3.4762,7.9462-8.286,15.3087-12.4978,22.933-2.9659,4.0011-5.9311,8.0026-9.6607,13.0356-7.5522-6.32-16.1174-8.1948-24.1085.6568-8.5708,1.0846-17.1184,2.7965-25.7175,3.1131-14.455.5321-29.0063,1.0023-43.3932-.1071-8.936-.6891-17.644-4.3374-26.4543-6.6576q-.5206-6.3819-1.0415-12.7637c-3.4982,1.9759-4.8012,4.5558-6.523,6.8166-3.419,4.49-5.8668,10.5512-13.3418,9.2378q-6.78-5.0586-13.56-10.1194-1.6172-2.9507-3.2342-5.9014l.3624-.6835,2.9479-6.1743q6.8559-10.5573,13.71-21.1147,3.4022-5.196,6.8079-10.3917c8.5743-.6993,15.7367-3.3316,18.7627-12.5527.4406-1.3425,2.8612-2.035,4.3657-3.0283q-.7459,11.1189-1.4888,22.24-.784,2.7057-1.5744,5.4066l1.5293.3376.55-5.3306,4.9738-29.4018-1.4563-.3817-1.9888,2.4556-10.5875-3.7054c.098-1.0767-.1374-2.341.3461-3.2008,4.1821-7.4365,8.4934-14.8,12.77-22.185q.8349-2.7626,1.6624-5.5263c2.0017,1.9324,4.11,3.7687,5.9684,5.83a44.6428,44.6428,0,0,1,3.3386,4.7757q1.8129,2.424,3.6246,4.85,3.38.9363,6.7628,1.8677-3.9916,28.9941-7.9831,57.9881l1.6745.1716,13.0505-73.23c2.2864-.8907,4.641-2.689,6.848-2.5231,13.1858.9916,20.51-7.3121,23.2681-17.77,3.7912-14.376,14.2135-24.062,21.1387-36.1327Zm21.9742,135.7049c1.6427-7.273,3.2854-14.5458,4.9977-22.127l6.2686-1.7489.2679-2.6364-14.1546-3.201C433.4587,301.2955,433.4587,301.2955,431.5422,324.0715Zm-1.9835-46.3333-10.3066-.5962,6.8308,12.1028C427.367,284.9935,428.3065,281.8834,429.5587,277.7382Zm-.6785,13.7639-.28.4867.4352.0535Z" transform="translate(-157.983 -91)" fill="#ee9973"/>
  <path d="M450.389,586.0553c14.0534,3.3083,27.6418,7.8853,39.1919,16.8215,7.4465,5.7614,7.66,14.6906.94,22.0824-9.24,10.1636-22.224,13.3613-34.542,17.2007-32.0973,10.0045-65.3029,13.1722-98.7253,13.7973-26.2874.4915-52.7186,1.65-78.8536-.4209-26.0659-2.0655-52.0106-6.97-77.6672-12.2782-11.0255-2.2814-21.4343-8.238-31.6911-13.3859-17.263-8.6646-12.7223-24.3148,2.6634-32.105,10.16-5.1445,21.223-8.695,32.1583-12.0594,9.1476-2.8144,18.6964-4.3239,28.0675-6.4111l-2.2191,20.0174c-1.48,9.0882-3.6466,18.1664-3.776,27.2739-.022,1.55,8.6243,3.968,13.403,4.3752,1.3787.1174,3.9309-5.2172,4.6866-8.3553.8244-3.423.1874-7.1979.1874-11.7124,10.0621.736,18.6875-8.85,29.7529-3.2541,1.1871.6,5.3234-2.6056,6.66-4.8855,1.3987-2.3856,1.0694-5.7847,1.4939-8.73,5.5692,3.0587,10.9236,6,16.2772,8.94-4.2756,9.5184-2.1239,12.43,8.7145,11.7207q22.4816-1.4712,44.96-2.9908c14.9674-.9962,18.4954-5.664,15.59-20.6308L365.39,587.229l-.2227.3941.301-.3341q-2.0773-1.371-4.15-2.7456l.378-3.6937c1.1384-7.0492,6.1528-7.333,11.6627-6.6144,3.2716.4266,6.5215,1.02,9.7811,1.5389q.3732,6.16.7465,12.32c-3.5363,9.2139-6.8073,18.5414-10.6816,27.6109-4.085,9.5628-1.0062,14.4548,9.3038,15.3847,8.8035.7938,13.3929-4.6566,18.2014-10.2907l.1706,4.6123c-.0336,5.6035-.7072,11.3156.2154,16.7568.3674,2.1665,4.2276,5.1,6.5686,5.1657,2.0767.0584,5.8492-3.1975,6.0763-5.2934.6215-5.7363-.2313-11.6323-.5-17.4651l1.33-45.3448,23.6536,3.4654.4293,15.5464c-1.0781,1.98-3.0477,3.9525-3.066,5.9426-.0537,5.8376.6685,11.6824,1.1079,17.8187,5.8259.3317,13.2709,4.1515,15.0235-4.0654,1.3127-6.1535-1.152-13.1129-1.9349-19.7134Q450.0863,592.14,450.389,586.0553Z" transform="translate(-157.983 -91)" fill="#e5dad6"/>
  <path d="M414.57,579.2308q-.6651,22.6723-1.3328,45.3455-6.1814.4182-12.3572.8353-.0854-2.3062-.1705-4.6113-.0319-14.9-.0643-29.8019-.2049-30.7932-.41-61.5864V421.108l-65.8767-3.4227-3.6117-.1711-22.3707-.2839c-14.5016-3.8538-16.2546-2.68-16.7493,11.1628a18.004,18.004,0,0,1-.4282,2.4734c-1.8429.2948-3.6861.5884-4.3276.6907.3856,4.99,1.2279,9.3051.9489,13.5463-.7592,11.543-2.0494,23.0507-2.9122,34.5885-.058.7753,1.6931,1.6858,2.6027,2.5334l.76-.1134q-.7248,3.4731-1.45,6.9463-.2948,6.6486-.5895,13.2972-2.3759,40.1266-4.7519,80.2534l-13.246-1.3535q1.5028-13.5712,3.0052-27.1455a8.8777,8.8777,0,0,0,.926-2.3411q4.971-57.588,9.8629-115.1844c1.1143-22.2733,5.81-22.8349-18.718-22.1922-.4814.0126-.95.5177-1.7713.9944l-1.4277,12.2088c-2.0124,3.6-5.6758,7.1587-5.7657,10.8058-.5273,21.4-.22,42.8216-.1942,64.2358l.086-.0746c-.64,1.1906-1.7306,2.3374-1.8513,3.5785-1.765,18.148-3.4,36.3084-5.0669,54.4659l-1.647,33.127c-.1048,6.5582-3.0113,8.9859-9.4845,6.7092a38.374,38.374,0,0,0-6.4755-1.1289l2.2191-20.0174q4.6444-35.6855,9.2865-71.37.2028-2.795.41-5.5915.069-3.2126.1382-6.4263,3.5664-32.5014,7.1322-65.0008c1.1813-9.7268,1.84-19.5532,3.6733-29.1556,2.404-12.5945,5.7337-25.0121,8.6626-37.5035q2.5023,1.81,5.01,3.6153c-.8453,8.3582-1.6906,16.7164-2.5534,25.2473,19.3413-.218,24.6382-7.3257,19.57-23.6024-.3336-1.0711-.596-2.1644-.8915-3.2472q2.6914-2.7063,5.3826-5.4127c9.3892,12.9038,5.71,27.9474,5.9218,42.2955l13.4358,1.6659c28.5985,1.3984,57.1949,2.8429,85.7967,4.1716,10.8307.5033,10.5765.36,11.5153-10.7674.76-9.0073,2.2434-17.9535,3.4061-26.9267l9.9479-8.5264c-.7029,7.1-1.19,12.0225-1.6776,16.945-.6111,8.8543-1.2221,17.7087-1.8651,27.027,23.4764-6.85,22.4167-2.0457,19.3364-25.2911-.0747-.5633-.16-1.1252-.24-1.6877l9.9651-6.8721c1.1473,15.7207,2.4529,31.4323,3.37,47.1665.409,7.0173.0354,14.08.017,21.1224-.3509,13.7019-.7219,27.4033-.9616,41.1071-.0076.436,1.3307.8956,2.0414,1.3441q1.0783,46.5687,2.168,93.1371c.0736,3.1.3032,6.1967.46,9.295q-.3025,6.0847-.6052,12.17l-11.13.0176-.4293-15.5464,1.0239-48.4157c-.5065-40.3615-1.0131-80.7232-1.536-122.3925-5.8024,1.7446-9.199,3.2168-12.7359,3.74-8.6071,1.2728-11.0838,5.8212-10.927,14.4694.6008,33.139.3712,66.2929.4516,99.4414Q414.5354,554.3846,414.57,579.2308Z" transform="translate(-157.983 -91)" fill="#766e71"/>
  <path d="M328.2534,248.4761c-4.2729,7.3854-8.5842,14.7492-12.7663,22.1857-.4835.86-.2481,2.1241-.3439,3.2021-12.058-5.7419-23.8688-3.3273-35.7263.8677-3.0824,1.09-6.6286,2.218-9.7056,1.7262-9.8327-1.5717-19.545-3.8962-29.3037-5.93-7.8207-2.5774-15.2875-5.2955-12.3035-16.2481.44-1.615-.9112-3.7184-1.4337-5.5958q2.0439-15.7614,4.0877-31.523l-2.66-.2824-3.02,31.4574-26.6405-3.3172c-1.209-3.1592-3.9015-6.5964-3.3709-9.43,2.336-12.4748,4.89-25.0089,8.8358-37.0391,1.926-5.8723,7.0725-10.688,10.7546-15.978a76.3087,76.3087,0,0,1,3.6934,8.2831c3.3436,10.6636,14.4233,17.33,26.336,15.6226,8.6708-1.2425,12.7388-7.3546,13.13-19.7251q8.1553-.7759,16.31-1.5564c18.1522,8.8929,35.5415,7.6725,47.8989-3.3616q8.6012,6.8871,17.2031,13.7737.0745,8.4354.1474,16.8735-3.9361,7.58-7.8708,15.1564L324.02,225.38c0,7.3005-.2039,13.7181.1662,20.1025C324.2629,246.8129,323.4641,252.2754,328.2534,248.4761Z" transform="translate(-157.983 -91)" fill="#9aabca"/>
  <path d="M257.8174,186.75c-.3913,12.3728-4.4593,18.4849-13.13,19.7274-11.9127,1.7071-22.9924-4.959-26.336-15.6226a76.3087,76.3087,0,0,0-3.6934-8.2831,1.4466,1.4466,0,0,0-.8234-1.2958l-.0782.0535c5.0608-.1071,5.21-3,3.8181-6.7511q-2.107-5.6794-4.2364-11.3508c5.4086-7.6017,9.964-16.054,16.4613-22.5692,6.7229-6.7414,10.5006-13.9665,11.006-23.2122l.0719-.0953q.4806-1.8792.9633-3.758c2.8608-14.4232,21.2-25.366,36.82-21.97,16.83,3.6584,29.12,17.3389,29.6019,34.578.1929,6.9064,2.8827,11.3865,8.1576,14.5347,6.5341,3.9,9.1979,9.5187,9.2623,16.73.0593,2.6629.12,5.3758.1807,8.0886q-.8307,3.1025-1.6614,6.2051c-3.0585-1.6354-4.1984-1.4128-5.7465,2.5415-1.2634,3.2269-5.7192,5.4649-9.147,7.4832-1.9951,1.1747-4.8779.7214-7.1459,1.5738-8.472,3.184-16.6734,3.5966-24.5783-1.5423l-1.2047-13.7986,3.2584-.2426c3.4982,4.0775,6.2474,2.0152,8.87-1.0823,8.7592-5.5923,14.6026-16.6152,12.554-23.6815q-.4687-2.7375-.9383-5.4741c1.3557-3.5046,4.0293-7.6408-3.337-6.9658l-1.5944-.6271,6.0145-5.047L283.54,113.7893c-2.8741,10.9785-4.7843,12.5587-16.7571,15.4263-2.3179.5552-4.2095,2.8909-6.2978,4.4053l.18.2319-1.6038,2.0212c-2.9184,8.728-8.4739,17.6147,1.5374,25.5648-.0616,4.1881.1894,8.411-.2714,12.5546C259.85,178.2857,258.683,182.501,257.8174,186.75Zm64.589-27.2076.934.1727c.1908-.4631.64-1.0172.5163-1.37a7.798,7.798,0,0,0-1.22-1.7791Q322.5214,158.0546,322.4064,159.5425Z" transform="translate(-157.983 -91)" fill="#995c4b"/>
  <path d="M261.2365,364.247c-2.9315,12.4937-6.2612,24.9113-8.6652,37.5058-1.8328,9.6024-2.492,19.4288-3.6731,29.1554l-13.12-.09c-15.4557-3.33-15.26-3.3358-15.7153-19.561-.8387-29.8983,4.4928-59.107,9.0086-88.4577,1.4924-9.7.7593-19.7419,1.044-29.632q5.105-1.032,10.21-2.0557l-.041.1128c.3572.7513.7261,2.1641,1.07,2.1579,11.0492-.1964,22.4113.9643,33.0509-1.2807,9.8274-2.0737,20.01-1.5794,21.859,5.4078.8606,3.251-.6046,7.1178-1.0155,10.7055q-6.8559,10.5573-13.7129,21.1081-1.4745,3.0838-2.9468,6.1808s-.3624.6835-.3656.6762c-2.0336,2.1938-3.6651,5.5059-6.1636,6.4034C261.253,346.4661,259.7994,354.518,261.2365,364.247Z" transform="translate(-157.983 -91)" fill="#9aabca"/>
  <path d="M339.3779,212.48q-.0738-8.4363-.1481-16.8721,5.0825-4.0922,10.1656-8.1866c4.4139,2.9522,8.5443,6.5749,13.3468,8.6136,2.9948,1.2713,8.5232,1.6412,10.2913-.16,6.9336-7.0639,12.8249-15.1512,18.932-22.6481-4.0837-2.0791-7.4345-3.7851-11.2613-5.7336,4.4685-5.3849,7.0352-11.3284,1.5226-15.5742-2.9079-2.24-8.6438-.8065-14.5891-1.1067.3.506-.1331-.97-1.1162-1.7632-5.6119-4.5284-7.48-14.4651-17.6952-12.3929-4.1123-5.181-8.4947-10.3044-4.5467-17.559,3.8678-7.107,10.0959-9.5793,17.8327-8.8678,22.1185,2.0339,41.0223,9.9982,53.209,29.698,3.3048,5.3424,4.87,12.0278-.4961,16.3944-11.6272,9.46-8.4607,20.5752-5.26,32.0455q-.975.205-1.9556.4109c-1.6726.14-4.2723-.3556-4.8717.5194-5.424,7.9193-10.7209,15.9478-15.57,24.2285-2.0566,3.5123-2.2675,8.183-4.5558,11.4629-2.9742,4.2632-6.5361,9.3583-11.0022,11.063-7.7637,2.9635-16.4137,3.6041-25.4938,5.3749,0-6.1886.393-12.9316-.23-19.5792-.1968-2.0982-3.1144-3.9412-4.7868-5.901Z" transform="translate(-157.983 -91)" fill="#d5cbc8"/>
  <path d="M348.8263,136.6562c10.215-2.0722,12.0833,7.8645,17.6952,12.3929.9831.7934,1.4157,2.2692,1.1162,1.7632,5.9453.3,11.6812-1.133,14.5891,1.1067,5.5126,4.2458,2.9459,10.1893-1.5226,15.5742,3.8268,1.9485,7.1776,3.6545,11.2613,5.7336-6.1071,7.4969-11.9984,15.5842-18.932,22.6481-1.7681,1.8014-7.2965,1.4315-10.2913.16-4.8025-2.0387-8.9329-5.6614-13.3468-8.6135-1.6742-1.1506-3.3488-2.3022-4.2139-2.8971,6.5524-3.3933,13.28-5.7688,18.4618-10.0257,2.6164-2.1493,2.4351-7.7053,3.79-12.7253L339.2279,160.34C342.7185,151.7274,345.7724,144.1918,348.8263,136.6562Z" transform="translate(-157.983 -91)" fill="#b6927c"/>
  <path d="M443.2942,372.8832q-4.9825,3.4361-9.9661,6.8717-8.6162-.0241-17.2307-.0478c.4873-4.9225.9747-9.845,1.6776-16.945-4.8315,4.1411-7.39,6.3337-9.9494,8.5264,0-3.24-.4753-6.5738.1361-9.6945.6111-3.1191,2.3092-6.0252,3.5307-9.0247,7.9911-8.8516,16.5563-6.9764,24.1085-.6568,3.73-5.033,6.6948-9.0345,9.6607-13.0356C437.8559,349.8217,441.6758,361.4162,443.2942,372.8832Z" transform="translate(-157.983 -91)" fill="#b6927c"/>
  <path d="M235.7786,430.8183l13.12.09q-3.5662,32.5-7.1324,65.001c-1.492-7.935-3.6912-15.8158-4.3181-23.82C236.3735,458.3729,236.2824,444.5794,235.7786,430.8183Zm7.489,4.6314-1.6792-.017v35.1179l1.6792.0154Z" transform="translate(-157.983 -91)" fill="#d1b7a7"/>
  <path d="M277.584,181.8146c7.9049,5.1389,16.1063,4.7263,24.5783,1.5423,2.268-.8524,5.1508-.3991,7.1459-1.5738,3.4278-2.0183,7.8836-4.2563,9.147-7.4832,1.5481-3.9543,2.688-4.1769,5.7465-2.5415q-1.0866,5.0388-2.1741,10.0769c-12.3583,11.0332-29.7476,12.2536-47.8984,3.3622Q275.8579,183.5077,277.584,181.8146Z" transform="translate(-157.983 -91)" fill="#8b6456"/>
  <path d="M240.3256,291.1123q-5.1048,1.0255-10.21,2.0554c-3.8859-.6824-7.7547-1.4914-11.6605-2.0345-14.9769-2.0828-20.5546-8.2888-20.6882-23.5039-.0513-5.8422.2812-11.6878.4351-17.5323q2.3364.0249,4.68.05c-.6918,3.2669-1.9138,6.5321-1.9244,9.8011-.01,3.1981,1.716,6.3876,1.7968,9.603.192,7.6413,2.7644,14.0347,10.3776,16.1073,6.0594,1.6495,12.6777,1.1317,18.9642,2.112C234.9443,288.2147,237.589,289.9583,240.3256,291.1123Z" transform="translate(-157.983 -91)" fill="#e6c4a2"/>
  <path d="M240.8053,117.4462c-.5054,9.2457-4.2831,16.4708-11.006,23.2122-6.4973,6.5152-11.0527,14.9675-16.4613,22.5692.99-5.6331,1.4191-11.4526,3.1976-16.8251.96-2.9011,4.0634-5.2148,6.49-7.4834,5.327-4.981,11.9512-8.9033,11.4638-17.8629C234.43,119.9706,238.5969,118.6552,240.8053,117.4462Z" transform="translate(-157.983 -91)" fill="#e5dad6"/>
  <path d="M202.8828,250.1474q-2.3421-.0254-4.6806-.05.1167-2.5394.2311-5.0788,13.328,1.6593,26.6458,3.3183a6.1414,6.1414,0,0,0,1.5913.3474c.5225,1.8774,1.8738,3.9808,1.4337,5.5958-2.984,10.9526,4.4828,13.6707,12.3037,16.2484-8.6952.4252-17.5268,1.23-17.5311-11.6842,0-1.5169-1.9016-3.8987-3.41-4.3941C214.0523,252.6709,208.428,251.53,202.8828,250.1474Z" transform="translate(-157.983 -91)" fill="#d1b7a7"/>
  <path d="M447.7606,483.6233c-.7107-.4485-2.049-.9081-2.0414-1.3441.24-13.7038.6107-27.4052.9616-41.1071Q447.2207,462.3979,447.7606,483.6233Z" transform="translate(-157.983 -91)" fill="#535151"/>
  <path d="M325.8631,165.5533c-.0607-2.7128-.1214-5.4257-.1807-8.0886-.0617-.2189-.2438-.5328-.1628-.7472a7.9982,7.9982,0,0,1,.7259-1.2467Q326.0544,160.512,325.8631,165.5533Z" transform="translate(-157.983 -91)" fill="#8b6456"/>
  <path d="M241.8406,113.5929q-.4824,1.8789-.9634,3.758Q241.36,115.4722,241.8406,113.5929Z" transform="translate(-157.983 -91)" fill="#e5dad6"/>
  <path d="M241.6276,502.3355q-.2061,2.7961-.41,5.5915Q241.4247,505.13,241.6276,502.3355Z" transform="translate(-157.983 -91)" fill="#d1b7a7"/>
  <path d="M213.7563,181.33l.0782-.0535c-.66-.12-1.3249-.2377-1.9892-.3558l.5326-1.126Z" transform="translate(-157.983 -91)" fill="#9aabca"/>
  <path d="M411.4924,352.5693c-1.2215,3-2.92,5.9056-3.5307,9.0247-.6114,3.1207-.1363,6.4543-.1361,9.6945-1.1612,8.9732-2.6446,17.9194-3.4046,26.9267-.9388,11.1271-.6846,11.2707-11.5153,10.7674-28.6018-1.3287-57.1982-2.7732-85.7965-4.17q4.4093-27.9459,8.8182-55.8948c8.81,2.32,17.5183,5.9685,26.4543,6.6576,14.3869,1.1094,28.9382.6392,43.3932.1071C394.374,355.3658,402.9216,353.6539,411.4924,352.5693Z" transform="translate(-157.983 -91)" fill="#dca1ba"/>
  <path d="M202.8828,250.1474c5.5452,1.3822,11.17,2.5235,16.5844,4.3024,1.5079.4954,3.409,2.8772,3.41,4.3941.0043,12.9139,8.8359,12.1094,17.5311,11.6842,9.7585,2.0335,19.4708,4.358,29.3035,5.93,3.077.4918,6.6232-.6357,9.7056-1.7262,11.8575-4.195,23.6683-6.61,35.7263-.8677q5.2905,1.8508,10.5852,3.7018-.2726,2.336-.5446,4.6767c-1.5045.9933-3.9251,1.6858-4.3657,3.0283-3.026,9.2211-10.1884,11.8534-18.7653,12.5534-.17-2.5209.5728-5.7743-.7243-7.3872-1.7953-2.2325-5.0309-4.3159-7.8153-4.5578-9.0614-.7874-18.1973-.7523-27.3064-.9406-3.5676-.0738-9.8032-.9219-10.2807.3243-3.214,8.3863-10.1816,4.8858-15.6409,5.9619l.041-.1128c-2.7372-1.1536-5.3819-2.8972-8.2292-3.3411-6.2865-.98-12.9048-.4625-18.9642-2.112-7.6132-2.0726-10.1856-8.466-10.3776-16.1073-.0808-3.2154-1.8072-6.4049-1.7968-9.603C200.969,256.68,202.191,253.4143,202.8828,250.1474Z" transform="translate(-157.983 -91)" fill="#eeb595"/>
  <path d="M315.9274,348.9176q-4.4091,27.9483-8.8182,55.8949c-4.1607-.5174-8.3211-1.0332-13.436-1.6674-.2117-14.3481,3.4674-29.3917-5.92-42.2931q1.9119-4.1776,3.8194-8.36l3.4479-.2849c7.4751,1.3146,9.9229-4.747,13.3419-9.2366,1.7218-2.2608,3.0248-4.8407,6.523-6.8166Q315.4067,342.5358,315.9274,348.9176Z" transform="translate(-157.983 -91)" fill="#9aabca"/>
  <path d="M341.1,215.9467c1.6724,1.96,4.59,3.8028,4.7868,5.901.6234,6.6476.23,13.3906.23,19.5792,9.08-1.7708,17.73-2.4114,25.4938-5.3749,4.4661-1.7047,8.028-6.8,11.0022-11.063,2.2883-3.28,2.4992-7.9506,4.5558-11.4629,4.8489-8.2807,10.1458-16.3092,15.57-24.2285.5994-.875,3.1991-.38,4.8717-.5194-6.9246,12.0713-17.3469,21.7573-21.1381,36.1333-2.758,10.4578-10.0823,18.7615-23.2681,17.77-2.207-.1659-4.5616,1.6324-6.848,2.5212q-2.6458,4.1236-5.2916,8.2511-.4289,1.0629-.8575,2.1257l-.5706,3.0419-6.7839-.217q-1.8127-2.424-3.6249-4.8482c.5674-4.4625,1.4584-8.9123,1.63-13.39C341.1652,232.1019,341.0423,224.0209,341.1,215.9467Z" transform="translate(-157.983 -91)" fill="#e6c4a2"/>
  <path d="M291.5731,352.4921q-1.9086,4.1811-3.8194,8.36-2.6946,2.7029-5.38,5.4111-8.06.8016-16.1295,1.6015-2.5064-1.8066-5.01-3.6153c-1.4345-9.7313.0191-17.7832,10.8266-21.6656,2.4985-.8975,4.13-4.21,6.1636-6.4034q1.6218,2.9618,3.2361,5.91C279.7816,350.4688,283.2427,353.8485,291.5731,352.4921Z" transform="translate(-157.983 -91)" fill="#b6927c"/>
  <path d="M240.2852,291.2247c5.4593-1.0761,12.4269,2.4244,15.6409-5.9619.4775-1.2462,6.7131-.3981,10.2807-.3243,9.1091.1883,18.245.1532,27.3064.9406,2.7844.2419,6.02,2.3253,7.8153,4.5578,1.2971,1.6129.5547,4.8663.7244,7.3872q-3.4011,5.1946-6.8054,10.391c.4128-3.5876,1.878-7.4544,1.0174-10.7054-1.85-6.9872-12.0316-7.4815-21.859-5.4078-10.64,2.245-22.0017,1.0843-33.0509,1.2807C241.0113,293.3888,240.6424,291.976,240.2852,291.2247Z" transform="translate(-157.983 -91)" fill="#d1b7a7"/>
  <path d="M341.1,215.9467c-.0572,8.0742.0657,16.1552-.2427,24.22-.1711,4.4773-1.0621,8.9271-1.63,13.39a44.791,44.791,0,0,0-3.3394-4.7754c-1.8585-2.0615-3.9667-3.8978-5.9642-5.8286q.7955-7.6556,1.5827-15.3141,3.9351-7.5774,7.8708-15.1564Q340.2391,214.2128,341.1,215.9467Z" transform="translate(-157.983 -91)" fill="#daa17f"/>
  <path d="M349.6361,258.6213q.2853-1.5209.5671-3.0428.4269-1.0633.8609-2.1248,2.6458-4.1265,5.2917-8.2511-6.5253,36.6176-13.05,73.2314l-1.6745-.1716q3.9915-28.9941,7.9824-57.9873A6.4023,6.4023,0,0,0,349.6361,258.6213Z" transform="translate(-157.983 -91)" fill="#af7b62"/>
  <path d="M331.5064,227.638q-.7893,7.658-1.5827,15.3141-.8356,2.761-1.6666,5.5247c-4.793,3.7986-3.9942-1.6639-4.0712-2.9945-.37-6.3844-.1662-12.802-.1662-20.1025Z" transform="translate(-157.983 -91)" fill="#fcf3f0"/>
  <path d="M431.5422,324.0715c1.9165-22.776,1.9165-22.776-2.62-29.7133l14.1546,3.201-.2679,2.6364-6.2686,1.7489C434.8276,309.5257,433.1849,316.7985,431.5422,324.0715Z" transform="translate(-157.983 -91)" fill="#af7b62"/>
  <path d="M291.5731,352.4921c-8.33,1.3564-11.7915-2.0233-10.1129-10.4022q6.7818,5.0589,13.5609,10.1185Q293.2969,352.349,291.5731,352.4921Z" transform="translate(-157.983 -91)" fill="#cc9f7f"/>
  <path d="M325.1838,282.2424q.2722-2.34.5445-4.6767.9946-1.2243,1.989-2.4533l1.4563.3817L324.2,304.8959l-.5078-.4159Q324.4378,293.3613,325.1838,282.2424Z" transform="translate(-157.983 -91)" fill="#af7b62"/>
  <path d="M429.5587,277.7382c-1.2522,4.1452-2.1917,7.2553-3.4758,11.5066l-6.8308-12.1028Z" transform="translate(-157.983 -91)" fill="#af7b62"/>
  <path d="M278.59,335.5041q1.4728-3.0937,2.9468-6.1808Q280.0641,332.42,278.59,335.5041Z" transform="translate(-157.983 -91)" fill="#b6927c"/>
  <path d="M349.6361,258.6213a6.4023,6.4023,0,0,1-.0229,1.6538q-3.3809-.9339-6.7621-1.8685Q346.2447,258.5116,349.6361,258.6213Z" transform="translate(-157.983 -91)" fill="#daa17f"/>
  <path d="M324.2,304.8959l-.55,5.3306-1.5293-.3376q.7887-2.7021,1.5744-5.4066Z" transform="translate(-157.983 -91)" fill="#af7b62"/>
  <polygon points="270.897 200.502 271.052 201.042 270.617 200.989 270.897 200.502" fill="#af7b62"/>
  <path d="M229.7119,599.3141a38.374,38.374,0,0,1,6.4755,1.1289c6.4732,2.2767,9.38-.151,9.484-6.7087q6.8281-1.2007,13.6574-2.4026,4.4526-5.038,8.9051-10.0763l13.2459,1.3534a36.5276,36.5276,0,0,1,3.3208-4.4013,51.4955,51.4955,0,0,1,4.8944-3.87c3.8848,4.386,7.2986,9.3517,11.7848,12.9974,4.6218,3.756,10.2869,6.28,15.7283.5823l4.6525,5.4681c5.3808-1.447,10.5834-4.0978,11.662-2.9319,6.7153,7.2585,12.7678.1988,18.9437-.1627,4.3782-.2564,8.6723-1.951,13.0039-3.0037l-.3033.336.2212-.3913q1.1353,1.9194,2.2737,3.8334c2.9051,14.9668-.6229,19.6346-15.59,20.6308q-22.48,1.4962-44.96,2.9908c-10.8384.7092-12.99-2.2023-8.7145-11.7207-5.3536-2.9407-10.708-5.8815-16.2772-8.94-.4245,2.9453-.0952,6.3444-1.4939,8.73-1.3369,2.28-5.4732,5.4859-6.66,4.8855-11.0654-5.5962-19.6908,3.99-29.7529,3.2541,0,4.5145.637,8.2894-.1874,11.7124-.7557,3.1381-3.3079,8.4727-4.6866,8.3553-4.7787-.4072-13.425-2.8249-13.403-4.3752C226.0653,617.4805,228.2319,608.4023,229.7119,599.3141Z" transform="translate(-157.983 -91)" fill="#3f3d3c"/>
  <path d="M361.6957,580.85q-.189,1.8468-.3775,3.6939c-8.6617,1.995-17.1559,6.5514-26.2656,1.725q-.0432-7.0242-.0873-14.0487l-.2951-18.81-.4483-4.846q-.79-16.0681-1.5792-32.1363c3.2435,1.1294,6.425,2.9343,9.744,3.238,5.7174.5231,11.52.1118,17.2871.0925-.0969,3.0839-.3848,6.1758-.2593,9.2506C360.12,546.2911,360.9247,563.57,361.6957,580.85Z" transform="translate(-157.983 -91)" fill="#b6927c"/>
  <path d="M439.2478,534.2805l-1.0239,48.4157L414.57,579.2308q-.0349-24.846-.0707-49.6883,5.8053-1.5783,11.6126-3.1641l2.2183-1.5026C436.3007,522.9816,439.2432,526.9253,439.2478,534.2805Z" transform="translate(-157.983 -91)" fill="#fcf3f0"/>
  <path d="M361.6957,580.85c-.771-17.28-1.5759-34.5586-2.2812-51.8413-.1255-3.0748.1624-6.1667.26-9.2516,8.4533-2.2214,15.1249.9272,20.8528,6.92l2.6127,49.0975c-3.26-.5186-6.51-1.1123-9.7811-1.5389C367.8485,573.5167,362.8341,573.8005,361.6957,580.85Z" transform="translate(-157.983 -91)" fill="#fcf3f0"/>
  <path d="M383.14,575.7742q-1.3064-24.5487-2.6135-49.0984,9.8539,1.3673,19.71,2.7362.2051,30.7934.4107,61.5876-8.3795-1.4514-16.76-2.9052Q383.5128,581.9344,383.14,575.7742Z" transform="translate(-157.983 -91)" fill="#b6927c"/>
  <path d="M383.886,588.0944q8.38,1.4532,16.76,2.9052.031,14.9.0635,29.8007c-4.8087,5.6331-9.3981,11.0835-18.2016,10.29-10.31-.93-13.3888-5.8219-9.3038-15.3847C377.0787,606.6358,380.35,597.3083,383.886,588.0944Z" transform="translate(-157.983 -91)" fill="#3f3d3c"/>
  <path d="M438.6532,598.2426l11.13-.0176c.7829,6.6006,3.2476,13.56,1.9349,19.7135-1.7526,8.2169-9.1976,4.3971-15.0235,4.0654-.4394-6.1363-1.1616-11.9811-1.1079-17.8187C435.6055,602.1951,437.5751,600.2229,438.6532,598.2426Z" transform="translate(-157.983 -91)" fill="#3f3d3c"/>
  <path d="M400.88,625.4116q6.1773-.4173,12.3573-.8353c.2717,5.8321,1.1245,11.7281.503,17.4644-.2271,2.0959-4,5.3518-6.0763,5.2934-2.341-.066-6.2012-2.9992-6.5686-5.1657C400.173,636.7272,400.8466,631.0151,400.88,625.4116Z" transform="translate(-157.983 -91)" fill="#3f3d3c"/>
  <path d="M335.0522,586.2686c9.11,4.8264,17.6043.27,26.266-1.725q2.0732,1.3734,4.15,2.7454c-4.3293,1.0508-8.6234,2.7454-13.0016,3.0018-6.1759.3615-12.2284,7.4212-18.9437.1627-1.0786-1.1659-6.2812,1.4849-11.662,2.9319-.6967-.8188-2.6746-3.1435-4.6528-5.4679a2.3111,2.3111,0,0,0,.0049-1.37q6.8209.397,13.6413.7949l1.9493-.079Q333.9279,586.7656,335.0522,586.2686Z" transform="translate(-157.983 -91)" fill="#2f2220"/>
  <path d="M367.6618,591.0652q-1.1376-1.9152-2.2737-3.8334Q366.5264,589.1456,367.6618,591.0652Z" transform="translate(-157.983 -91)" fill="#2f2220"/>
  <path d="M400.2356,529.412q-9.8551-1.3685-19.71-2.7362c-5.7271-5.9918-12.3987-9.14-20.852-6.919-5.7671.02-11.57.4316-17.2873-.0915-3.319-.3037-6.5005-2.1086-9.7436-3.24q-7.71.1254-15.42.2537c-8.7014,2.6646-17.4071,5.6288-25.9844-.3722l-2.9676-34.1953-.76.1146q.5658-3.4953,1.1312-6.9929c2.0075-1.8131,5.0429-3.2616,5.8382-5.5047,2.9023-8.1854,4.3407-16.9434,7.7445-24.8789,2.286-5.3293,3.352-9.57-.5081-14.197,5.6516-2.7711,7.9453-7.2087,6.66-13.4228q11.1853.142,22.3691.2831-3.6827,45.0588-7.3621,90.1193a10.72,10.72,0,0,0,3.8149-7.56c1.3368-20.3273,2.3618-40.6759,3.8137-60.9944.4357-6.0972,1.9158-12.12,2.92-18.1784q.0033,35.2353.0022,70.4742c-.4057-1.2125.2208-2.6307.319-4.0846,1.1219-16.614,2.4975-33.2225,3.0407-49.8574.1841-5.6405-1.7883-11.3513-2.7753-17.03q-.08-1.3582-.1595-2.7165l65.8767,3.4227Zm-15.81-97.3438-2.4453-.225q-3.6009,38.6865-7.2016,77.3731,1.2765.1171,2.5529.2343Z" transform="translate(-157.983 -91)" fill="#dca1ba"/>
  <path d="M439.2478,534.2805c-.0046-7.3552-2.9471-11.2989-10.9185-9.4046q-2.5008-20.0673-4.999-40.1352l-2.6681.3236q2.7251,20.6569,5.45,41.3141-5.8068,1.584-11.6126,3.1641c-.0795-33.1524.15-66.3063-.4507-99.4453-.1568-8.6482,2.32-13.1966,10.927-14.4694,3.5369-.523,6.9335-1.9952,12.7359-3.74C438.2347,453.5573,438.7413,493.919,439.2478,534.2805Zm-8.9088-74.8111-2.2475.3831q3.0687,27.6121,6.1375,55.2245l2.3817-.2968Q433.4748,487.1249,430.339,459.4694Z" transform="translate(-157.983 -91)" fill="#dca1ba"/>
  <path d="M268.2339,581.2554l-8.9048,10.0761c-2.4856-.1528-4.9716-.3053-7.8246-.48-.2505-3.7837-.9406-7.191-.6-10.4918.7639-7.4013,2.2786-14.7246,3.0543-22.1251,1.3068-12.4655,2.324-24.9626,3.3764-37.4537,1.2187-14.465,2.5-28.9278,3.439-43.4121.4215-6.5-.421-13.1.2362-19.56.5454-5.3628,2.4476-10.5876,3.7487-15.8735l1.3365.5784q2.54,25.8357,5.08,51.6712.0318,29.9643.0635,59.9285Q269.7367,567.6841,268.2339,581.2554Z" transform="translate(-157.983 -91)" fill="#eeb595"/>
  <path d="M271.1762,494.1843q-2.54-25.8356-5.08-51.6712l-1.3365-.5784c-1.3011,5.2859-3.2033,10.5107-3.7487,15.8735-.6572,6.46.1853,13.0606-.2362,19.56-.9393,14.4843-2.22,28.9471-3.439,43.4121-1.0524,12.4911-2.07,24.9882-3.3764,37.4537-.7757,7.4005-2.29,14.7238-3.0543,22.1251-.3407,3.3008.3494,6.7081.6,10.4918,2.853.175,5.339.3275,7.8246.48q-6.8295,1.2018-13.6577,2.4028.8243-16.5643,1.6468-33.127,3.4589-29.022,6.9189-58.0449l-.0857.0749c.5733-3.2552,1.4262-6.4895,1.6734-9.7694,1.4853-19.7068,2.8316-39.4239,4.2244-59.1377l12.5521-1.0623c.0532,16.1115.22,32.2241.085,48.3341C272.6494,485.4,271.7045,489.79,271.1762,494.1843Z" transform="translate(-157.983 -91)" fill="#dbb999"/>
  <path d="M271.1762,494.1843c.5283-4.3939,1.4732-8.7843,1.51-13.1823.1351-16.11-.0318-32.2226-.083-48.335q4.7157,1.9587,9.4272,3.9192-4.917,57.5926-9.8654,115.1826a8.8808,8.8808,0,0,1-.9259,2.3411Q271.2082,524.15,271.1762,494.1843Z" transform="translate(-157.983 -91)" fill="#e5dad6"/>
  <path d="M288.2711,482.112q1.4838,17.0976,2.9709,34.1936-.77,29.0142-1.547,58.032a51.4955,51.4955,0,0,0-4.8944,3.87,36.5276,36.5276,0,0,0-3.3208,4.4013q2.3761-40.1265,4.752-80.252.2946-6.6479.5895-13.2985Q287.5463,485.5851,288.2711,482.112Z" transform="translate(-157.983 -91)" fill="#e5dad6"/>
  <path d="M266.2438,367.8646q8.067-.8,16.1295-1.6015c.291,1.082.5534,2.1753.887,3.2464,5.0683,16.2767-.2286,23.3844-19.57,23.6024C264.5532,384.581,265.3985,376.2228,266.2438,367.8646Z" transform="translate(-157.983 -91)" fill="#9aabca"/>
  <path d="M416.0974,379.7071q8.615.0237,17.2307.0478c.081.5629.1659,1.1248.2406,1.6881,3.08,23.2454,4.14,18.4414-19.3364,25.2911C414.8753,397.4158,415.4863,388.5614,416.0974,379.7071Z" transform="translate(-157.983 -91)" fill="#dca1ba"/>
  <path d="M260.0492,433.73c-1.3928,19.7137-2.7391,39.4308-4.2244,59.1376-.2472,3.28-1.1,6.5142-1.6734,9.7694-.0262-21.4145-.3334-42.8356.1939-64.2361.09-3.6471,3.7533-7.2061,5.7678-10.8062Q260.0831,430.6624,260.0492,433.73Z" transform="translate(-157.983 -91)" fill="#8b6456"/>
  <path d="M334.3589,417.6853q.08,1.3582.1595,2.7165l-.5888.5c-1.0017,6.0569-2.4818,12.0795-2.9175,18.1767-1.4519,20.3185-2.4769,40.6671-3.8137,60.9944a10.72,10.72,0,0,1-3.8149,7.56q3.68-45.06,7.3621-90.1193Q332.5539,417.6,334.3589,417.6853Z" transform="translate(-157.983 -91)" fill="#af7990"/>
  <path d="M260.0492,433.73q.033-3.0677.0638-6.1352c.4827-4.1444.9674-8.2893,1.4257-12.2084.8216-.4767,1.29-.9818,1.7713-.9944,24.5277-.6427,19.8323-.0811,18.7179,22.1922q-4.7086-1.9574-9.4246-3.9174Q266.3241,433.2,260.0492,433.73Zm12.1545-3.6643,8.8885-6.5708c-3.2415-2.1-6.3-5.35-9.787-5.9052-2.4321-.3873-5.4522,2.9187-8.21,4.575C265.8039,424.5143,268.5124,426.8637,272.2037,430.0659Z" transform="translate(-157.983 -91)" fill="#a5bcc3"/>
  <path d="M308.3765,417.23c1.2856,6.2141-1.0081,10.6517-6.6588,13.4244q-5.013.2982-10.0273.5933l-.4918-.3826a17.9012,17.9012,0,0,0,.4286-2.4723C292.1219,414.55,293.8749,413.3765,308.3765,417.23Z" transform="translate(-157.983 -91)" fill="#9aabca"/>
  <path d="M288.6423,475.2336q-.5657,3.4971-1.1313,6.993c-.91-.8488-2.6609-1.7593-2.6029-2.5346.8628-11.5378,2.153-23.0455,2.9122-34.5885.279-4.2412-.5633-8.5562-.9489-13.5463.6415-.1023,2.4847-.3959,4.3276-.6907,0-.0011.4914.3815.4919.3772Q290.1672,453.2343,288.6423,475.2336Z" transform="translate(-157.983 -91)" fill="#8b6456"/>
  <path d="M254.2371,502.5624q-3.46,29.0227-6.9189,58.0449c1.6671-18.158,3.3026-36.3184,5.0676-54.4664C252.5065,504.9,253.5974,503.753,254.2371,502.5624Z" transform="translate(-157.983 -91)" fill="#8b6456"/>
  <path d="M286.8213,489.0583q-.2949,6.65-.5895,13.2985Q286.5265,495.7061,286.8213,489.0583Z" transform="translate(-157.983 -91)" fill="#8b6456"/>
  <path d="M277.584,181.8146q-1.7267,1.6923-3.4548,3.3829-8.1572.7772-16.3116,1.5549c.8654-4.2514,2.0327-8.4667,2.51-12.759.4608-4.1436.21-8.3665.2722-12.5539q5.267.895,10.5321,1.7886l5.2474,4.7879Z" transform="translate(-157.983 -91)" fill="#eeb595"/>
  <path d="M226.67,248.6839a6.1414,6.1414,0,0,1-1.5913-.3474q1.51-15.73,3.0194-31.458l2.66.2824Q228.7144,232.9225,226.67,248.6839Z" transform="translate(-157.983 -91)" fill="#5f7aa4"/>
  <path d="M276.3793,168.016q-2.6236-2.3939-5.2477-4.7891a19.3911,19.3911,0,0,0-1.1616-3.0506c-7.7867-13.35-4.7914-19.2819,10.2914-19.2479,6.9349.0155,13.867,1.3469,20.8,2.0816,2.0489,7.0659-3.7945,18.0888-12.5557,23.6818q-4.4362.5415-8.8683,1.0816Z" transform="translate(-157.983 -91)" fill="#fcf3f0"/>
  <path d="M260.4852,133.6209c2.0883-1.5144,3.98-3.85,6.2978-4.4053,11.9728-2.8676,13.883-4.4478,16.7571-15.4263l17.6667,11.1063c-2.0315,1.7047-4.023,3.3758-6.0145,5.05.18,4.7388-.6352,8.473-6.8279,7.56C279.0821,136.1379,269.7793,134.909,260.4852,133.6209Z" transform="translate(-157.983 -91)" fill="#eeb595"/>
  <path d="M260.4852,133.6209c9.2941,1.2881,18.5969,2.517,27.8792,3.885,6.1927.9127,7.0078-2.8215,6.8279-7.56q.7971.3091,1.5931.6248,1.668,3.4832,3.3383,6.9651.4694,2.7369.9383,5.4741c-6.9336-.7343-13.8657-2.0657-20.8006-2.0812-15.0828-.034-18.0781,5.8975-10.2914,19.2479a19.3911,19.3911,0,0,1,1.1616,3.0506q-5.2651-.892-10.5318-1.7874c-10.0121-7.9508-4.4566-16.8375-1.5378-25.566l1.6034-2.0207Z" transform="translate(-157.983 -91)" fill="#e6c4a2"/>
  <path d="M300.1237,137.5355q-1.67-3.4823-3.3383-6.9651C304.153,129.8947,301.4794,134.0309,300.1237,137.5355Z" transform="translate(-157.983 -91)" fill="#eeb595"/>
  <path d="M279.6377,167.7734q4.4331-.54,8.8683-1.0816C285.8851,169.7886,283.1359,171.8509,279.6377,167.7734Z" transform="translate(-157.983 -91)" fill="#eeb595"/>
  <path d="M322.4064,159.5425q.115-1.4881.23-2.9761a7.798,7.798,0,0,1,1.22,1.7791c.124.3525-.3255.9066-.5163,1.37Z" transform="translate(-157.983 -91)" fill="#8b6456"/>
  <path d="M260.6654,133.8528l-1.6034,2.0207Z" transform="translate(-157.983 -91)" fill="#eeb595"/>
  <path d="M243.2676,435.45V470.566l-1.6792-.0154V435.4327Z" transform="translate(-157.983 -91)" fill="#eeb595"/>
  <path d="M351.0642,253.4538q-.4323,1.0618-.861,2.1247Q350.6372,254.517,351.0642,253.4538Z" transform="translate(-157.983 -91)" fill="#daa17f"/>
  <path d="M289.695,574.3376q.7751-29.0169,1.547-58.032c8.574,6.0027,17.28,3.0385,25.981.3689q-2.6642,22.739-5.3282,45.4881.023,5.1438.0461,10.2876l.0519.1107q2.61,6.9933,5.22,13.9865a2.3082,2.3082,0,0,1-.0045,1.37c-5.4412,5.6972-11.1063,3.1736-15.7281-.5824C296.9936,583.6893,293.58,578.7236,289.695,574.3376Z" transform="translate(-157.983 -91)" fill="#eeb595"/>
  <path d="M311.8948,562.1626q2.664-22.7466,5.3282-45.4881,7.71-.12,15.42-.2487.7891,16.07,1.5787,32.1378.2241,2.4228.4484,4.846.1474,9.4052.2977,18.8111-11.4849.1709-22.9751.34l-.051-.11Q311.9191,567.3073,311.8948,562.1626Z" transform="translate(-157.983 -91)" fill="#fcf3f0"/>
  <path d="M311.9928,572.5609q11.4888-.17,22.9751-.34.04,7.0231.0847,14.0479-1.125.497-2.2473.9941l-1.9513.0792q-6.82-.3975-13.6413-.7948Q314.6024,579.5543,311.9928,572.5609Z" transform="translate(-157.983 -91)" fill="#e5dad6"/>
  <path d="M334.67,553.41q-.2243-2.4229-.4484-4.846Q334.4461,550.9866,334.67,553.41Z" transform="translate(-157.983 -91)" fill="#e5dad6"/>
  <path d="M426.1122,526.3784q-2.7249-20.6571-5.45-41.3141l2.6681-.3236q2.4988,20.0677,4.999,40.1352Q427.222,525.627,426.1122,526.3784Z" transform="translate(-157.983 -91)" fill="#af7990"/>
  <path d="M330.854,587.3419l1.9513-.0792Q331.8276,587.3026,330.854,587.3419Z" transform="translate(-157.983 -91)" fill="#b6927c"/>
  <path d="M288.6423,475.2337q1.5246-21.9972,3.0486-43.99,5.0133-.2894,10.0268-.589c3.8592,4.6259,2.7932,8.8661.5072,14.1954-3.4038,7.9355-4.8422,16.6935-7.7445,24.8789C293.6851,471.9721,290.65,473.4206,288.6423,475.2337Z" transform="translate(-157.983 -91)" fill="#eeb595"/>
  <path d="M384.4256,432.0682l-7.094,77.3824q-1.2765-.117-2.5529-.2343Q378.38,470.53,381.98,431.8432Z" transform="translate(-157.983 -91)" fill="#af7990"/>
  <path d="M334.5184,420.4018c.987,5.6787,2.9594,11.3895,2.7753,17.03-.5432,16.6349-1.9188,33.2434-3.0407,49.8574-.0982,1.4539-.7247,2.8721-.319,4.0846q0-35.238-.0023-70.4742Z" transform="translate(-157.983 -91)" fill="#af7990"/>
  <path d="M430.339,459.4694q3.1358,27.6553,6.2717,55.3108l-2.3817.2968q-3.0687-27.6123-6.1375-55.2245Z" transform="translate(-157.983 -91)" fill="#af7990"/>
  <path d="M272.2037,430.0659c-3.6913-3.2022-6.4-5.5516-9.1082-7.901,2.7575-1.6563,5.7776-4.9623,8.21-4.575,3.4873.5552,6.5455,3.8055,9.787,5.9052Z" transform="translate(-157.983 -91)" fill="#9aabca"/>
  <path d="M311.8948,562.1626q.024,5.1442.047,10.2882Q311.9174,567.3061,311.8948,562.1626Z" transform="translate(-157.983 -91)" fill="#e5dad6"/>
</svg>
