<svg id="Layer_1" data-name="Layer 1" xmlns="http://www.w3.org/2000/svg" viewBox="0 0 506.45 133.95"><path d="M135.61,5.17v9.26a4.11,4.11,0,0,1-1.06,2.31c-2.64,4.2-5.18,8.48-6.66,13.23-1.27,4.06-2.11,8.26-3.14,12.4Q118.68,67,112.59,91.54c-1.76,7.14-3.56,14.27-5.25,21.43-.31,1.31-.83,1.7-2.17,1.69-8.4-.07-16.81,0-25.22,0-2.69,0-2.68,0-2-2.56Q83.26,90.55,88.55,69c.38-1.57.36-1.6-1.27-1.6H55.38a3.51,3.51,0,0,0-2.15.66,22.16,22.16,0,0,0-3.84,3.26,11.64,11.64,0,0,0-3,5.24c-3,12.3-6.1,24.57-9.12,36.87-.23,1-.59,1.23-1.53,1.23H18.83a88,88,0,0,0-17.75,1.46C.08,116.3,0,116,0,115.2v-9.68a1.84,1.84,0,0,1,.87-1.67Q38.1,76.58,75.29,49.28a26.53,26.53,0,0,0,2.84-2.12,8.58,8.58,0,0,1,7.05-2.35c2.66.21,5.36,0,8,.07a1.31,1.31,0,0,0,1.54-1,1,1,0,0,0,0-.17c.74-3.18,1.59-6.33,2.34-9.5a3,3,0,0,1,1.21-1.86Q115.5,19.7,132.67,7.07C133.56,6.43,134.5,5.88,135.61,5.17Z" transform="translate(-0.02 0)" fill="#ee7676"/><path d="M7.3,89.12C9.48,80.33,11.56,72,13.64,63.6Q21.38,32.43,29.11,1.23C29.34.29,29.67,0,30.64,0Q44.27.06,57.91,0c1,0,1.39.11,1.09,1.33q-5.3,21.12-10.49,42.28c-.25,1-.1,1.24.93,1.23H60.75a10.19,10.19,0,0,0,4.64-1.45c5-2.58,9.32-6.15,13.56-9.79,2-1.72,3.88-3.56,5.79-5.38,3.74-3.59,6-8.21,8.38-12.67A64.94,64.94,0,0,0,99.17,1c.14-.55.28-1,1-1,9.32,0,18.63,0,28.11.3Z" transform="translate(-0.02 0)" fill="#073e62"/><path d="M192.59,77.22c0-11.14.11-22.28-.08-33.41,0-3,.87-3.68,3.66-3.51,4,.24,8,.15,12.05,0,2-.06,2.84.38,2.83,2.62q-.11,34.27,0,68.54c0,2.25-.84,2.68-2.83,2.62-4.13-.12-8.28-.24-12.39,0-2.93.19-3.32-1-3.29-3.52C192.66,99.49,192.59,88.35,192.59,77.22Z" transform="translate(-0.02 0)"/><path d="M222.21,98.67c0-10.56.12-21.12-.07-31.68,0-3,.87-3.73,3.67-3.55a84.12,84.12,0,0,0,11,0c3-.2,3.91.71,3.88,3.81-.15,18.47-.07,37-.07,55.43,0,2.76-.11,5.52,0,8.26.11,2.17-.52,3.11-2.87,3-4.24-.16-8.5-.16-12.74,0-2.27.09-2.91-.66-2.89-2.92C222.27,120.25,222.21,109.43,222.21,98.67Z" transform="translate(-0.02 0)"/><path d="M408.9,93.87c0,6.66-.06,12.16,0,17.67,0,1.89-.44,2.63-2.46,2.57-4.47-.14-9-.16-13.43,0-2.19.08-2.69-.71-2.67-2.76.09-9.87.06-19.74,0-29.61,0-4.12-.66-4.79-4.79-4.89a125.25,125.25,0,0,0-17.54.41c-2.08.25-3-.22-2.85-2.45.14-2.63.1-5.28,0-7.91-.06-1.61.37-2.58,2.13-2.82,10-1.37,20.08-2.33,30.12-.34,7.29,1.45,9.87,4.37,10.95,11.69C409.39,81.94,408.64,88.49,408.9,93.87Z" transform="translate(-0.02 0)"/><path d="M478,80.34V93.09c.06,6.61.86,7.44,7.55,7.73a86.23,86.23,0,0,0,15.82-.49c2.29-.32,3.45.27,3.19,2.86a22,22,0,0,0,0,5.84c.6,3.57-1.2,4.63-4.28,4.94-8.36.86-16.7,1.4-25.06.18-9.63-1.42-14.05-5.59-15-15.37a91.27,91.27,0,0,1,.36-23c1.42-9,7.71-11.84,15.61-12.68,2.11-.23,1.77,1.23,1.78,2.44C478,70.43,477.94,75.43,478,80.34Z" transform="translate(-0.02 0)"/><path d="M154.07,80.49v14.8c0,3.31,1.47,5.1,4.89,5.34a87.19,87.19,0,0,0,18.2-.3c2.57-.35,3.56.44,3.28,3.09a22.83,22.83,0,0,0,0,5.84c.48,3.33-1.14,4.41-4.1,4.71-8.7.9-17.38,1.43-26.07.07-8.18-1.28-12.72-5.34-13.79-13.49a80.73,80.73,0,0,1,.4-26c1.67-8.53,8.71-10.77,15.57-11.43,1.93-.18,1.57,1.19,1.57,2.26V80.53Z" transform="translate(-0.02 0)"/><path d="M269.73,87.73c0,6.7-.28,12.55-2.14,18.16-2.72,8.23-14.14,12-21.45,7.2a2.44,2.44,0,0,1-1.41-2.16c0-3.22.06-6.43,0-9.64,0-1.7,1-1.8,2.21-1.78,2.55,0,3.78-1.37,3.95-3.78a94.67,94.67,0,0,0,0-14.09c-.17-2.21-1.1-3.75-3.67-3.44-2,.24-2.56-.79-2.47-2.63a41.59,41.59,0,0,0,0-6.88c-.34-3,1-4.28,3.73-5.12,11.14-3.47,19,1.52,20.54,13.34A56.84,56.84,0,0,1,269.73,87.73Z" transform="translate(-0.02 0)"/><path d="M325.57,95.13c0,5.39-.12,10.79.05,16.17.08,2.34-.75,2.89-2.92,2.81-4.24-.15-8.49-.18-12.73,0-2.33.1-2.89-.73-2.87-2.93.09-9.4,0-18.8,0-28.2,0-2.49,0-5-3.66-4.84-1.36.07-1.34-1-1.34-1.89a39.44,39.44,0,0,0-.07-6.52c-.72-4.09,1.48-5.56,4.88-6.3a24.17,24.17,0,0,1,10.23-.18,8.62,8.62,0,0,1,6.43,5.65,30.07,30.07,0,0,1,1.95,10.74c.07,5.16,0,10.32,0,15.48Z" transform="translate(-0.02 0)"/><path d="M353.19,94.17v17.55c0,1.74-.44,2.43-2.3,2.38-4.47-.12-8.95-.16-13.41,0-2.27.08-2.64-.87-2.62-2.83.07-8.82.11-17.66,0-26.48-.05-3,1-6.86-4.31-6.8-1.18,0-2.8-11.42-1.76-12.19a13.32,13.32,0,0,1,2.67-1.52,19.66,19.66,0,0,1,13.12-.79c5.36,1.44,8.22,5.87,8.46,13.12.19,5.84,0,11.7,0,17.54Z" transform="translate(-0.02 0)"/><path d="M279.46,88.92c0-7.46.09-14.92,0-22.37-.05-2.43.73-3.19,3.11-3.1,4.36.16,8.72.1,13.08,0,1.75,0,2.4.56,2.39,2.38q-.08,23.06,0,46.12c0,1.7-.63,2.15-2.21,2.12-4.59-.08-9.18-.15-13.77,0-2.29.09-2.61-.88-2.59-2.83C279.51,103.84,279.46,96.43,279.46,88.92Z" transform="translate(-0.02 0)"/><path d="M434.92,77.52c-5.5,0-11-.1-16.5,0-2.3.07-3.13-.69-2.88-2.92a30.37,30.37,0,0,0,0-3.44c.12-2.39-.93-5.27.45-7s4.31-.59,6.54-.64c1.88,0,2.31-.81,2.26-2.5-.1-3.32,0-6.65-.06-10,0-1.77.52-2.44,2.35-2.4,4.58.1,9.17.12,13.75,0,2.07-.06,2.51.83,2.46,2.66-.1,3.32,0,6.65,0,10-.05,1.65.57,2.26,2.19,2.21,2.18-.08,4.36.06,6.54,0,1.74-.08,2.46.52,2.39,2.35-.12,3.1-.15,6.2,0,9.29.1,2.07-.79,2.47-2.63,2.44C446.16,77.43,440.54,77.52,434.92,77.52Z" transform="translate(-0.02 0)"/><path d="M494.14,92.79c-3,0-6-.19-8.93,0-2.7.22-3.49-.87-3.15-3.33a8,8,0,0,0,0-2.4c-.43-2.77.77-3.58,3.43-3.42,1.22.07,3.62,1.24,3.45-1.69-.14-2.51.51-6.17-3-6.32-4-.18-3.91-2.11-3.87-5,.09-8.29,0-8.31,8.32-7.7a34.49,34.49,0,0,1,4.74.69C502,65.23,505.47,69.1,506,76c.35,4.68.25,9.38.48,14.07.1,2.05-.53,2.87-2.69,2.76C500.55,92.66,497.34,92.79,494.14,92.79Z" transform="translate(-0.02 0)"/><path d="M170.27,92.78c-3.32,0-6.64-.06-10,0-1.64,0-2.3-.54-2.15-2.18a13.31,13.31,0,0,0,0-3.09c-.4-2.86.4-4.28,3.64-3.85,1.1.14,3.32,1.15,3.25-1.54s.33-6.36-2.93-6.41c-4.76-.07-4-2.75-3.94-5.54,0-7.8,0-7.8,7.74-7.21a32.83,32.83,0,0,1,4.08.44c8.12,1.66,11.47,5.22,12.12,13.45.36,4.55.11,9.16.29,13.73.07,2-.89,2.24-2.5,2.2C176.73,92.73,173.48,92.78,170.27,92.78Z" transform="translate(-0.02 0)"/><path d="M379.41,83.81h1.37c6.45.2,5.33-.73,5.54,5.46.09,2.35-.12,3.87-3.17,3.64s-3.08,2.18-3,4.32,0,4.59,3,4.39,3.38,1.41,3.14,3.74a8.34,8.34,0,0,0,0,1c0,6.65-1.3,8-8,8.35-10.82.54-15.36-3.64-15.78-14.51C362,87.14,365.58,83.67,379.41,83.81Z" transform="translate(-0.02 0)"/><path d="M424.79,97.76c0-4.59.08-9.17,0-13.75,0-2,.59-2.61,2.54-2.56,4.46.11,8.94.09,13.4,0,1.84,0,2.66.44,2.64,2.49-.09,9.28-.06,18.56,0,27.84,0,1.49-.24,2.35-2,2.31q-7.22-.14-14.44,0c-1.73,0-2.1-.71-2.07-2.25C424.84,107.15,424.79,102.43,424.79,97.76Z" transform="translate(-0.02 0)"/></svg>